<?xml version="1.0" encoding="UTF-8" standalone="no"?>
<!-- Created with Inkscape (http://www.inkscape.org/) -->

<svg
   xmlns:dc="http://purl.org/dc/elements/1.1/"
   xmlns:cc="http://creativecommons.org/ns#"
   xmlns:rdf="http://www.w3.org/1999/02/22-rdf-syntax-ns#"
   xmlns:svg="http://www.w3.org/2000/svg"
   xmlns="http://www.w3.org/2000/svg"
   xmlns:sodipodi="http://sodipodi.sourceforge.net/DTD/sodipodi-0.dtd"
   xmlns:inkscape="http://www.inkscape.org/namespaces/inkscape"
   width="256"
   height="248.86838"
   id="svg2"
   version="1.1"
   inkscape:version="0.48.5 r10040"
   sodipodi:docname="border-corner-right-top.svg">
  <defs
     id="defs4" />
  <sodipodi:namedview
     id="base"
     pagecolor="#ffffff"
     bordercolor="#666666"
     borderopacity="1.0"
     inkscape:pageopacity="0.0"
     inkscape:pageshadow="2"
     inkscape:zoom="0.66"
     inkscape:cx="274.9904"
     inkscape:cy="285.91416"
     inkscape:document-units="px"
     inkscape:current-layer="layer1"
     showgrid="false"
     inkscape:window-width="1440"
     inkscape:window-height="784"
     inkscape:window-x="0"
     inkscape:window-y="0"
     inkscape:window-maximized="1"
     fit-margin-top="0"
     fit-margin-left="0"
     fit-margin-right="0"
     fit-margin-bottom="0" />
  <metadata
     id="metadata7">
    <rdf:RDF>
      <cc:Work
         rdf:about="">
        <dc:format>image/svg+xml</dc:format>
        <dc:type
           rdf:resource="http://purl.org/dc/dcmitype/StillImage" />
        <dc:title></dc:title>
      </cc:Work>
    </rdf:RDF>
  </metadata>
  <g
     inkscape:label="Layer 1"
     inkscape:groupmode="layer"
     id="layer1"
     transform="translate(0,-803.49333)">
    <path
       style="fill:#008000"
       d="m 32.891402,1051.4018 c 1.621764,-6.491 2.620782,-19.9728 2.23647,-30.1815 -0.154256,-4.0976 -0.37624,-7.546 -0.493298,-7.663 -0.977046,-0.9771 -25.7556658,-1.7071 -31.9037643,-0.94 -1.3638252,0.1702 -2.57226755,0.1596 -2.68542825,-0.024 -0.26087681,-0.4221 0.37495501,-0.5684 8.08045025,-1.859 7.3925393,-1.2381 13.4207203,-1.3586 20.9562673,-0.4186 2.79899,0.3491 5.164846,0.559 5.257457,0.4664 0.332985,-0.333 -0.789907,-8.7661 -2.477962,-18.60993 -2.827851,-16.49047 -3.073642,-18.72641 -3.19087,-29.02756 -0.118356,-10.40036 -0.401183,-12.49779 -3.338561,-24.75881 -1.761153,-7.35128 -2.849157,-10.40343 -4.541181,-12.73919 -1.920057,-2.65057 -2.685621,-2.89482 -4.257449,-1.3583 -2.436428,2.38168 -4.968283,2.13459 -6.278385,-0.61272 -0.6411896,-1.34459 -0.64673,-1.56732 -0.05593,-2.24878 0.360659,-0.416 1.379466,-2.15089 2.264017,-3.85531 2.661267,-5.12794 5.692511,-6.9538 7.78877,-4.69154 1.100117,1.18724 1.512113,2.77286 2.689709,10.35174 0.510723,3.28695 1.390104,7.56979 1.954182,9.51742 1.279602,4.41819 2.890371,11.28251 3.601559,15.34811 0.297754,1.70217 0.702705,3.09485 0.899884,3.09485 0.197182,0 0.358511,-0.34801 0.358511,-0.77336 0,-1.6989 1.862254,-7.74553 3.392872,-11.01646 1.646784,-3.51917 4.247149,-7.64735 6.59675,-10.47259 1.478906,-1.7783 1.49176,-2.07481 0.441206,-10.18017 -1.835442,-14.16102 -5.990185,-26.8386 -11.877347,-36.24197 -1.625001,-2.59556 -1.632501,-2.58895 -2.378078,2.0919 -1.180811,7.41333 -0.89938,19.65589 0.617629,26.86751 0.882374,4.19468 2.915783,9.48289 4.553697,11.84266 1.125757,1.62189 1.427464,2.48176 1.427682,4.0689 3.29e-4,2.34385 -0.897246,3.5704 -2.289433,3.12854 -0.652347,-0.20705 -1.121398,-1.05689 -1.751996,-3.17431 -2.225359,-7.47235 -3.59423,-14.17762 -4.266939,-20.90113 -0.578532,-5.78227 -0.566366,-20.23139 0.0216,-25.63591 l 0.463886,-4.2641 -2.941537,-5.25063 c -3.751311,-6.69607 -5.46785,-10.51953 -6.28603,-14.00159 -1.233228,-5.24845 -0.676799,-11.82061 1.502756,-17.74966 2.437366,-6.63037 8.648015,-14.52896 13.105678,-16.66755 6.105834,-2.92932 12.051103,-9.16394 12.045425,-12.63167 -0.0051,-3.11268 -3.882926,-5.70065 -8.026916,-5.357 -2.105747,0.17463 -2.531006,0.38505 -4.033536,1.99584 -1.774001,1.90183 -1.882299,2.6634 -0.94643,6.65525 l 0.300239,1.28063 -1.342597,-1.30179 c -1.834503,-1.77875 -2.128359,-3.82348 -0.910919,-6.33839 1.350016,-2.78875 3.010422,-3.67211 6.901501,-3.6717 2.589492,2.9e-4 3.616909,0.22066 5.763975,1.23641 3.205294,1.51636 4.003782,2.57502 4.003782,5.30834 0,3.1328 -2.053673,6.68316 -5.431583,9.39005 -2.705522,2.16806 -2.860951,2.82565 -0.67148,2.84087 1.899093,0.0132 6.037508,2.39297 7.171785,4.12412 0.731114,1.11581 0.509263,2.71243 -0.376897,2.71243 -0.292196,0 -0.951164,-0.56794 -1.464371,-1.26208 -1.332066,-1.80171 -4.511287,-3.54998 -6.455659,-3.54998 -4.578473,0 -11.159616,5.50047 -14.440147,12.06896 -4.744996,9.50073 -4.34562,17.34345 1.507878,29.61065 2.367253,4.96107 2.430332,5.04451 3.065493,4.05533 1.118253,-1.74155 5.245445,-5.91904 5.847754,-5.91904 0.817091,0 0.751118,0.18021 -0.914846,2.49912 -0.819597,1.14082 -1.959876,3.32209 -2.533947,4.84726 l -1.043766,2.77303 2.914182,5.81937 c 4.58523,9.15629 7.748818,18.73931 9.394139,28.45631 0.680734,4.02031 2.148332,15.46877 2.150321,16.77427 2.82e-4,0.18674 1.201105,-0.63566 2.66849,-1.82755 1.467386,-1.19191 3.66148,-2.63987 4.875766,-3.21771 5.217243,-2.4827 11.519871,-3.12435 15.331864,-1.56089 1.153146,0.47296 2.593133,0.96758 3.199975,1.09915 0.606841,0.13158 2.113689,1.24957 3.348544,2.48443 7.939801,7.9398 14.787225,25.44327 17.144621,43.82526 0.438457,3.41889 0.61342,3.93083 1.404678,4.10992 0.497114,0.11251 2.728736,0.59689 4.959162,1.07639 15.427134,3.31654 29.040304,8.95683 37.394384,15.49345 2.96939,2.32339 3.55114,3.14801 5.3117,7.52929 2.02619,5.04236 -0.0199,11.99441 -4.9456,16.80361 -1.36197,1.3297 -2.39532,2.49 -2.29633,2.5784 0.099,0.088 1.81277,0.3883 3.80842,0.6665 15.69273,2.1878 28.86909,6.1136 41.79412,12.4523 l 6.61413,3.2437 2.91066,-0.7488 c 1.60086,-0.4117 3.88726,-1.2593 5.08088,-1.8834 1.19362,-0.6241 2.29448,-1.0074 2.44636,-0.8517 0.43848,0.4496 -3.37531,3.6493 -5.48669,4.6031 l -1.92094,0.8679 4.90907,2.3193 c 2.69998,1.2757 6.92606,3.0124 9.39126,3.8593 4.29986,1.4774 4.72532,1.5406 10.45846,1.5541 5.15181,0.012 6.38849,-0.1236 8.96439,-0.9841 6.79012,-2.2681 12.05663,-5.9207 13.83555,-9.5954 1.56317,-3.2291 1.03212,-5.3117 -2.06883,-8.1132 -1.90406,-1.7202 -2.09164,-2.1954 -1.02775,-2.6037 2.02805,-0.7782 6.12262,4.4355 6.12262,7.7962 l 0,1.4722 2.34669,-2.2194 c 3.2031,-3.0295 6.47656,-4.506 9.93044,-4.4794 2.3091,0.018 2.8366,0.1778 3.87999,1.1775 2.04538,1.9595 3.05229,4.4969 3.05229,7.6916 0,2.6394 -0.1036,2.9539 -1.46127,4.4354 -1.4385,1.5696 -1.51111,1.5944 -4.66124,1.5944 -2.80365,0 -3.33711,-0.1288 -4.30721,-1.0401 -1.41898,-1.333 -0.80648,-2.0483 0.9682,-1.1305 3.62985,1.877 8.18089,-0.6377 8.18089,-4.5205 0,-2.6074 -1.3547,-4.8009 -3.65179,-5.9129 -1.77596,-0.8598 -2.15015,-0.9022 -3.74945,-0.4249 -0.97713,0.2915 -2.3876,0.8451 -3.13439,1.2302 -2.1847,1.1263 -7.02179,5.6377 -7.64564,7.1308 -1.54962,3.7087 -8.90443,8.4332 -16.6091,10.6691 -5.04391,1.4637 -13.03602,1.87 -17.60711,0.8949 -4.33067,-0.9236 -9.50961,-3.1273 -16.23133,-6.9065 l -5.76224,-3.2398 -3.27029,0.2853 c -5.51198,0.4809 -24.34609,-1.144 -32.4726,-2.8015 -4.71951,-0.9626 -13.78229,-3.4132 -16.86158,-4.5595 -1.74855,-0.6509 -2.15838,-1.0005 -2.26712,-1.9334 -0.11594,-0.9947 0.051,-1.1733 1.31938,-1.4112 1.54541,-0.29 4.79244,0.3916 5.22868,1.0975 0.37895,0.6131 4.0455,2.4067 7.37548,3.6079 8.5456,3.0826 23.7189,4.9723 33.5924,4.1836 l 4.26876,-0.3409 -2.98813,-1.7075 c -11.73583,-6.7062 -25.52771,-11.2325 -41.62038,-13.6592 -4.03234,-0.608 -4.06395,-0.6058 -5.57837,0.3955 -5.73058,3.7887 -15.65138,7.0739 -21.36196,7.0739 -2.68729,0 -1.91574,0.5916 1.86138,1.4272 4.07743,0.9021 9.5771,2.4078 15.04737,4.1197 2.11303,0.6613 7.16845,1.8946 11.23427,2.7408 8.10877,1.6874 9.75483,2.3132 10.14187,3.8552 0.60285,2.402 -0.93112,3.7729 -6.24308,5.5796 -1.69218,0.5756 -3.33096,1.2576 -3.64173,1.5154 -1.22507,1.0167 -4.45587,-1.1259 -4.43431,-2.9408 0.0157,-1.326 0.65931,-2.2875 2.01409,-3.0092 1.25024,-0.666 1.21122,-1.1437 -0.20032,-2.4519 -1.97495,-1.8303 -6.86297,-3.8533 -14.20674,-5.8799 -12.38722,-3.4183 -17.855157,-4.5291 -22.293212,-4.5291 -6.939161,0 -13.727705,-1.0613 -32.773753,-5.1233 -11.595232,-2.4729 -21.588466,-4.2681 -23.759756,-4.2681 l -1.116792,0 0.266682,3.0949 c 0.659851,7.6576 0.794386,15.5998 0.315935,18.6514 -0.802877,5.1208 -4.143499,16.6726 -4.821472,16.6726 -0.237364,0 -0.323584,-0.4323 -0.191599,-0.9604 z m 74.260618,-31.9421 c 5.85894,-0.8778 13.59174,-3.3601 15.17446,-4.8713 1.40573,-1.3421 -27.753232,-1.3761 -36.186313,-0.042 -4.908512,0.7765 -12.923744,2.4468 -12.719821,2.6507 0.18583,0.1858 10.869299,1.7308 15.457792,2.2354 4.958496,0.5453 14.719012,0.5599 18.273882,0.027 z m -33.427975,-3.3918 c 1.760864,-0.4556 2.553255,-0.7359 1.760864,-0.6228 -0.79239,0.1132 -3.577747,0.2292 -6.189689,0.2579 l -4.748999,0.052 2.774695,0.536 c 1.52608,0.2949 2.870739,0.5517 2.988128,0.5708 0.117388,0.019 1.654144,-0.3383 3.415001,-0.794 z m 3.201568,-2.7653 c 13.453415,-2.0985 23.836067,-6.4162 24.815797,-10.3197 0.41369,-1.6483 -0.63834,-3.4265 -2.877128,-4.86312 -2.036998,-1.30714 -2.632467,-2.11098 -1.555354,-2.09958 1.014362,0.0107 6.657182,3.40409 7.551692,4.5413 3.22943,4.1055 0.68929,7.203 -8.939039,10.9002 -2.466547,0.9471 -2.809555,1.1678 -1.494061,0.9614 2.607124,-0.4091 22.07617,-0.263 26.84065,0.2014 l 4.21624,0.4109 2.1869,-1.6527 c 5.99335,-4.5294 8.77477,-11.7243 6.35361,-16.43534 -1.25968,-2.45105 -4.03065,-5.44954 -6.50096,-7.03473 -6.37258,-4.08928 -21.40621,-6.18507 -33.365406,-4.65137 -4.16743,0.53446 -3.781613,0.13228 -4.453811,4.64265 -0.447757,3.00437 -2.037991,6.81521 -4.171283,9.99607 -1.075316,1.60336 -2.033005,3.13172 -2.128192,3.39632 -0.09519,0.2646 -0.337677,0.3268 -0.538861,0.1382 -0.201178,-0.1887 0.05485,-1.1491 0.568883,-2.13443 0.514067,-0.98529 1.230938,-3.23216 1.59303,-4.99303 0.362106,-1.76085 1.031597,-4.63495 1.487764,-6.38686 0.45616,-1.75191 0.75239,-3.26229 0.658284,-3.35639 -0.659328,-0.65934 -11.907468,3.00123 -17.505638,5.69698 -6.138223,2.95581 -9.508356,5.18501 -11.484271,7.59636 -0.883656,1.07839 -2.950703,3.06037 -4.593439,4.40427 -2.394014,1.9586 -3.065558,2.3225 -3.383648,1.8335 -0.218275,-0.3355 -0.298194,-1.0305 -0.177606,-1.5443 0.120588,-0.5139 0.0085,-1.0646 -0.249125,-1.2238 -0.624762,-0.3861 2.499536,-3.57714 5.891853,-6.01767 4.990946,-3.59062 11.483654,-13.09281 15.206694,-22.25526 1.271059,-3.1281 1.899289,-2.92295 -6.119527,-1.99837 -5.691562,0.65624 -7.424575,0.96964 -10.138303,1.83343 -0.86636,0.27577 -1.387346,0.28746 -1.387346,0.0311 0,-0.22576 0.336164,-0.52025 0.747034,-0.65441 0.41087,-0.13416 2.15146,-0.90801 3.867976,-1.71967 3.518034,-1.66349 8.23679,-2.70523 12.253846,-2.70523 l 2.706848,0 0.6315,-2.2411 c 3.683828,-13.07316 3.32706,-27.69426 -0.863628,-35.39394 -1.4317,-2.63051 -4.902957,-5.86784 -7.885517,-7.35411 -5.524926,-2.75319 -13.994386,-0.27564 -19.837998,5.80316 l -1.763368,1.83434 -0.253492,9.60471 c -0.228036,8.64031 -1.301411,19.28742 -2.216304,21.98411 -0.159302,0.46957 0.499188,-0.65159 1.463313,-2.49144 4.914944,-9.37928 8.816302,-12.00821 13.155545,-8.86487 1.825977,1.32273 5.338589,7.36566 4.66238,8.02094 -0.197079,0.19098 -0.668263,-0.133 -1.047081,-0.71995 -0.378819,-0.58696 -1.391739,-1.78755 -2.250936,-2.66798 -1.275572,-1.30709 -1.866466,-1.60078 -3.220803,-1.60078 -3.252234,0 -6.163342,3.08905 -9.856018,10.45846 -3.171537,6.32939 -5.823853,15.30774 -6.935745,23.47818 -0.50557,3.71504 -0.373179,15.37935 0.240519,21.19105 0.287237,2.7202 0.131628,2.6283 5.303163,3.1329 1.52608,0.149 4.044037,0.5618 5.595452,0.9176 6.610376,1.5156 20.70728,1.6946 29.194915,0.3706 z m 2.044384,-28.80305 c 2.397312,-0.69035 5.188045,-1.38596 6.201626,-1.5458 2.393389,-0.37744 2.914067,-0.95668 3.310656,-3.68299 0.341901,-2.35042 0.331417,-8.0083 -0.01549,-8.3552 -0.492467,-0.49247 -10.436128,-1.4707 -12.222624,-1.20244 l -1.962067,0.29464 -1.609716,4.06709 c -1.628838,4.11538 -4.911776,10.48818 -7.014067,13.61562 -0.631289,0.93913 -1.277504,1.91904 -1.436038,2.17757 -0.158522,0.25854 2.114137,-0.56119 5.050361,-1.82162 2.936231,-1.26043 7.300039,-2.85653 9.697357,-3.54687 z m -43.299221,-2.35176 c 0.236767,-1.87456 0.375566,-3.4632 0.308448,-3.53033 -0.06712,-0.0671 -0.539592,0.9691 -1.049939,2.30271 -0.795927,2.07989 -0.883731,2.88556 -0.617365,5.66472 l 0.310531,3.23997 0.308921,-2.13439 c 0.169906,-1.1739 0.502638,-3.66812 0.739404,-5.54268 z m 93.465234,3.47348 c -4.86622,-4.30239 -21.50678,-10.84992 -34.719037,-13.66084 l -4.706189,-1.00124 0.30432,3.02969 c 0.167373,1.66633 0.316192,4.15825 0.330708,5.53759 l 0.02637,2.5079 1.387347,-0.2786 c 2.947526,-0.59192 11.749991,-1.1032 15.026451,-0.87281 8.42135,0.59216 15.20099,2.09365 20.08408,4.44802 1.87824,0.90561 3.51104,1.65489 3.62844,1.66509 0.11739,0.0102 -0.49575,-0.60846 -1.36251,-1.3748 z M 36.831699,972.57618 c 2.363509,-8.10959 3.781714,-17.80237 4.417178,-30.18932 0.212687,-4.14589 0.237851,-7.94035 0.05592,-8.43214 -0.293344,-0.79299 -0.513378,-0.60871 -1.944551,1.62857 -6.472662,10.1184 -8.072447,21.84407 -5.908084,43.30354 l 0.274537,2.72201 1.029547,-2.72201 c 0.566255,-1.4971 1.500208,-4.3369 2.075448,-6.31065 z m 51.570733,-4.20184 c -1.769209,-13.57747 -4.79374,-24.30797 -9.544486,-33.86216 -2.136723,-4.29716 -4.322944,-7.61544 -5.42336,-8.23167 -0.44313,-0.24815 -0.309446,0.23488 0.413491,1.49406 3.078035,5.3612 4.384448,12.77959 4.029978,22.88397 -0.196512,5.60172 -0.454426,7.57413 -1.545562,11.81974 -0.720326,2.80281 -1.244525,5.16117 -1.164883,5.24081 0.07965,0.0796 2.812902,0.52987 6.073914,1.00049 3.261011,0.47061 6.121203,0.93047 6.35598,1.02191 0.906759,0.35311 1.006919,0.18299 0.804928,-1.36715 z m 6.451962,70.52586 c -0.704339,-0.3225 -2.625286,-0.6017 -4.268755,-0.6206 -4.205594,-0.048 -9.065863,-0.9975 -11.550099,-2.2563 -1.163732,-0.5897 -3.555232,-2.3691 -5.314464,-3.9543 -4.967604,-4.4759 -6.857146,-5.8715 -10.551171,-7.7934 -3.302246,-1.718 -9.280655,-3.493 -11.785682,-3.4992 -1.440485,-0.01 -1.358888,-0.9968 0.09946,-1.2106 0.526618,-0.077 4.545546,0.925 8.930954,2.2273 4.385406,1.3023 10.086507,2.8612 12.669105,3.4643 2.582592,0.603 7.105914,1.8514 10.051814,2.7742 9.8229,3.0768 11.505408,4.2032 11.505408,7.703 0,1.8721 0.09979,2.0651 1.280621,2.4767 0.704352,0.2456 1.280634,0.6486 1.280634,0.8956 0,0.5859 -0.763475,0.5187 -2.347821,-0.2067 z M 27.916178,1000.534 c -0.326513,-3.49656 -1.944701,-8.34948 -3.869325,-11.60404 -0.81967,-1.38606 -3.609248,-4.79526 -6.19906,-7.576 -6.085001,-6.53358 -6.58197,-7.68413 -6.66665,-15.43417 -0.03526,-3.22745 -0.276675,-6.06964 -0.576969,-6.7928 -0.333121,-0.80221 -0.369593,-1.39016 -0.102792,-1.65696 0.266797,-0.2668 0.630064,0.10468 1.023755,1.04692 0.571829,1.36858 0.717885,1.45019 2.321709,1.29724 2.300958,-0.21943 4.106812,0.78601 5.411848,3.01314 1.30023,2.21891 3.744789,10.64272 5.17122,17.81969 0.583287,2.93477 1.935655,8.56309 3.005257,12.50736 1.873454,6.90862 2.207241,9.66532 1.209859,9.99202 -0.293845,0.096 -0.56751,-0.8846 -0.728852,-2.6124 z"
       id="path3168"
       inkscape:connector-curvature="0" />
  </g>
</svg>
