<?xml version="1.0" encoding="UTF-8" standalone="no"?>
<!-- Created with Inkscape (http://www.inkscape.org/) -->

<svg
   xmlns:dc="http://purl.org/dc/elements/1.1/"
   xmlns:cc="http://creativecommons.org/ns#"
   xmlns:rdf="http://www.w3.org/1999/02/22-rdf-syntax-ns#"
   xmlns:svg="http://www.w3.org/2000/svg"
   xmlns="http://www.w3.org/2000/svg"
   xmlns:sodipodi="http://sodipodi.sourceforge.net/DTD/sodipodi-0.dtd"
   xmlns:inkscape="http://www.inkscape.org/namespaces/inkscape"
   width="256"
   height="248.86838"
   id="svg2"
   version="1.1"
   inkscape:version="0.48.5 r10040"
   sodipodi:docname="border-corner-left-top.svg">
  <defs
     id="defs4" />
  <sodipodi:namedview
     id="base"
     pagecolor="#ffffff"
     bordercolor="#666666"
     borderopacity="1.0"
     inkscape:pageopacity="0.0"
     inkscape:pageshadow="2"
     inkscape:zoom="0.93338095"
     inkscape:cx="-117.29703"
     inkscape:cy="14.212768"
     inkscape:document-units="px"
     inkscape:current-layer="layer1"
     showgrid="false"
     inkscape:window-width="1440"
     inkscape:window-height="784"
     inkscape:window-x="0"
     inkscape:window-y="0"
     inkscape:window-maximized="1"
     fit-margin-top="0"
     fit-margin-left="0"
     fit-margin-right="0"
     fit-margin-bottom="0" />
  <metadata
     id="metadata7">
    <rdf:RDF>
      <cc:Work
         rdf:about="">
        <dc:format>image/svg+xml</dc:format>
        <dc:type
           rdf:resource="http://purl.org/dc/dcmitype/StillImage" />
        <dc:title></dc:title>
      </cc:Work>
    </rdf:RDF>
  </metadata>
  <g
     inkscape:label="Layer 1"
     inkscape:groupmode="layer"
     id="layer1"
     transform="translate(-256,-547.49381)">
    <path
       inkscape:connector-curvature="0"
       id="path3172"
       d="m 479.1086,548.45371 c -1.62177,6.491 -2.62078,19.9728 -2.23647,30.1815 0.15425,4.0976 0.37624,7.546 0.4933,7.663 0.97704,0.9771 25.75566,1.7071 31.90376,0.94 1.36383,-0.1702 2.57227,-0.1596 2.68543,0.024 0.26088,0.4221 -0.37496,0.5684 -8.08045,1.859 -7.39254,1.2381 -13.42072,1.3586 -20.95627,0.4186 -2.79899,-0.3491 -5.16485,-0.559 -5.25746,-0.4664 -0.33298,0.333 0.78991,8.7661 2.47797,18.60993 2.82785,16.49047 3.07364,18.72641 3.19087,29.02756 0.11835,10.40036 0.40118,12.49779 3.33856,24.75881 1.76115,7.35128 2.84915,10.40343 4.54118,12.73919 1.92005,2.65057 2.68562,2.89482 4.25745,1.3583 2.43642,-2.38168 4.96828,-2.13459 6.27838,0.61272 0.64119,1.34459 0.64673,1.56732 0.0559,2.24878 -0.36066,0.416 -1.37946,2.15089 -2.26402,3.85531 -2.66126,5.12794 -5.69251,6.9538 -7.78877,4.69154 -1.10011,-1.18724 -1.51211,-2.77286 -2.6897,-10.35174 -0.51073,-3.28695 -1.39011,-7.56979 -1.95419,-9.51742 -1.2796,-4.41819 -2.89037,-11.28251 -3.60156,-15.34811 -0.29775,-1.70217 -0.7027,-3.09485 -0.89988,-3.09485 -0.19718,0 -0.35851,0.34801 -0.35851,0.77336 0,1.6989 -1.86225,7.74553 -3.39287,11.01646 -1.64679,3.51917 -4.24715,7.64735 -6.59675,10.47259 -1.47891,1.7783 -1.49176,2.07481 -0.44121,10.18017 1.83544,14.16102 5.99019,26.8386 11.87735,36.24197 1.625,2.59556 1.6325,2.58895 2.37808,-2.0919 1.18081,-7.41333 0.89938,-19.65589 -0.61763,-26.86751 -0.88238,-4.19468 -2.91579,-9.48289 -4.5537,-11.84266 -1.12576,-1.62189 -1.42746,-2.48176 -1.42768,-4.0689 -3.3e-4,-2.34385 0.89724,-3.5704 2.28943,-3.12854 0.65235,0.20705 1.1214,1.05689 1.752,3.17431 2.22536,7.47235 3.59423,14.17762 4.26694,20.90113 0.57853,5.78227 0.56636,20.23139 -0.0216,25.63591 l -0.46389,4.2641 2.94154,5.25063 c 3.75131,6.69607 5.46785,10.51953 6.28603,14.00159 1.23323,5.24844 0.6768,11.82064 -1.50276,17.74964 -2.43736,6.6304 -8.64801,14.529 -13.10568,16.6676 -6.10583,2.9293 -12.0511,9.1639 -12.04542,12.6316 0.005,3.1127 3.88292,5.7007 8.02691,5.357 2.10575,-0.1746 2.53101,-0.385 4.03354,-1.9958 1.774,-1.9018 1.8823,-2.6634 0.94643,-6.6553 l -0.30024,-1.2806 1.3426,1.3018 c 1.8345,1.7788 2.12836,3.8235 0.91092,6.3384 -1.35002,2.7887 -3.01042,3.6721 -6.9015,3.6717 -2.5895,-3e-4 -3.61691,-0.2207 -5.76398,-1.2364 -3.20529,-1.5164 -4.00378,-2.575 -4.00378,-5.3084 0,-3.1328 2.05367,-6.6831 5.43158,-9.39 2.70552,-2.1681 2.86095,-2.8257 0.67148,-2.8409 -1.89909,-0.013 -6.03751,-2.3929 -7.17178,-4.1241 -0.73112,-1.1158 -0.50927,-2.7124 0.37689,-2.7124 0.2922,0 0.95117,0.5679 1.46438,1.2621 1.33206,1.8017 4.51128,3.5499 6.45565,3.5499 4.57848,0 11.15962,-5.5004 14.44015,-12.0689 4.745,-9.5008 4.34562,-17.3435 -1.50788,-29.61067 -2.36725,-4.96107 -2.43033,-5.04451 -3.06549,-4.05533 -1.11825,1.74155 -5.24544,5.91904 -5.84775,5.91904 -0.81709,0 -0.75112,-0.18021 0.91484,-2.49912 0.8196,-1.14082 1.95988,-3.32209 2.53395,-4.84726 l 1.04377,-2.77303 -2.91419,-5.81937 c -4.58523,-9.15629 -7.74881,-18.73931 -9.39414,-28.45631 -0.68073,-4.02031 -2.14833,-15.46877 -2.15032,-16.77427 -2.8e-4,-0.18674 -1.2011,0.63566 -2.66849,1.82755 -1.46738,1.19191 -3.66148,2.63987 -4.87576,3.21771 -5.21725,2.4827 -11.51987,3.12435 -15.33187,1.56089 -1.15314,-0.47296 -2.59313,-0.96758 -3.19997,-1.09915 -0.60684,-0.13158 -2.11369,-1.24957 -3.34855,-2.48443 -7.9398,-7.9398 -14.78722,-25.44327 -17.14462,-43.82526 -0.43845,-3.41889 -0.61342,-3.93083 -1.40467,-4.10992 -0.49712,-0.11251 -2.72874,-0.59689 -4.95917,-1.07639 -15.42713,-3.31654 -29.0403,-8.95683 -37.39438,-15.49345 -2.96939,-2.32339 -3.55114,-3.14801 -5.3117,-7.52929 -2.02619,-5.04236 0.0199,-11.99441 4.9456,-16.80361 1.36197,-1.3297 2.39532,-2.49 2.29633,-2.5784 -0.099,-0.088 -1.81277,-0.3883 -3.80842,-0.6665 -15.69273,-2.1878 -28.86909,-6.1136 -41.79412,-12.4523 l -6.61413,-3.2437 -2.91066,0.7488 c -1.60086,0.4117 -3.88726,1.2593 -5.08088,1.8834 -1.19362,0.6241 -2.29448,1.0074 -2.44636,0.8517 -0.43848,-0.4496 3.37531,-3.6493 5.48669,-4.6031 l 1.92094,-0.8679 -4.90907,-2.3193 c -2.69998,-1.2757 -6.92606,-3.0124 -9.39126,-3.8593 -4.29986,-1.4774 -4.72532,-1.5406 -10.45846,-1.5541 -5.15181,-0.012 -6.38849,0.1236 -8.96439,0.9841 -6.79012,2.2681 -12.05663,5.9207 -13.83555,9.5954 -1.56317,3.2291 -1.03212,5.3117 2.06883,8.1132 1.90406,1.7202 2.09164,2.1954 1.02775,2.6037 -2.02805,0.7782 -6.12262,-4.4355 -6.12262,-7.7962 l 0,-1.4722 -2.34669,2.2194 c -3.2031,3.0295 -6.47656,4.506 -9.93044,4.4794 -2.3091,-0.018 -2.8366,-0.1778 -3.87999,-1.1775 -2.04535,-1.9595 -3.05226,-4.4969 -3.05226,-7.6916 0,-2.6394 0.1036,-2.9539 1.46127,-4.4354 1.4385,-1.5696 1.51111,-1.5944 4.66124,-1.5944 2.80365,0 3.33711,0.1288 4.30721,1.0401 1.41898,1.333 0.80648,2.0483 -0.9682,1.1305 -3.62985,-1.877 -8.18089,0.6377 -8.18089,4.5205 0,2.6074 1.3547,4.8009 3.65179,5.9129 1.77596,0.8598 2.15015,0.9022 3.74945,0.4249 0.97713,-0.2915 2.3876,-0.8451 3.13439,-1.2302 2.1847,-1.1263 7.02179,-5.6377 7.64564,-7.1308 1.54962,-3.7087 8.90443,-8.4332 16.6091,-10.6691 5.04391,-1.4637 13.03602,-1.87 17.60711,-0.8949 4.33067,0.9236 9.50961,3.1273 16.23133,6.9065 l 5.76224,3.2398 3.27029,-0.2853 c 5.51198,-0.4809 24.34609,1.144 32.4726,2.8015 4.71951,0.9626 13.78229,3.4132 16.86158,4.5595 1.74855,0.6509 2.15838,1.0005 2.26712,1.9334 0.11594,0.9947 -0.051,1.1733 -1.31938,1.4112 -1.54541,0.29 -4.79244,-0.3916 -5.22868,-1.0975 -0.37895,-0.6131 -4.0455,-2.4067 -7.37548,-3.6079 -8.5456,-3.0826 -23.7189,-4.9723 -33.5924,-4.1836 l -4.26876,0.3409 2.98813,1.7075 c 11.73583,6.7062 25.52771,11.2325 41.62038,13.6592 4.03234,0.608 4.06395,0.6058 5.57837,-0.3955 5.73058,-3.7887 15.65138,-7.0739 21.36196,-7.0739 2.68729,0 1.91574,-0.5916 -1.86138,-1.4272 -4.07743,-0.9021 -9.5771,-2.4078 -15.04737,-4.1197 -2.11303,-0.6613 -7.16845,-1.8946 -11.23427,-2.7408 -8.10877,-1.6874 -9.75483,-2.3132 -10.14187,-3.8552 -0.60285,-2.402 0.93112,-3.7729 6.24308,-5.5796 1.69218,-0.5756 3.33096,-1.2576 3.64173,-1.5154 1.22507,-1.0167 4.45587,1.1259 4.43431,2.9408 -0.0157,1.326 -0.65931,2.2875 -2.01409,3.0092 -1.25024,0.666 -1.21122,1.1437 0.20032,2.4519 1.97495,1.8303 6.86297,3.8533 14.20674,5.8799 12.38722,3.4183 17.85516,4.5291 22.29321,4.5291 6.93916,0 13.72771,1.0613 32.77375,5.1233 11.59524,2.4729 21.58847,4.2681 23.75976,4.2681 l 1.11679,0 -0.26668,-3.0949 c -0.65985,-7.6576 -0.79439,-15.5998 -0.31593,-18.6514 0.80287,-5.1208 4.14349,-16.6726 4.82147,-16.6726 0.23736,0 0.32358,0.4323 0.1916,0.9604 z m -74.26062,31.9421 c -5.85894,0.8778 -13.59174,3.3601 -15.17446,4.8713 -1.40573,1.3421 27.75323,1.3761 36.18631,0.042 4.90851,-0.7765 12.92375,-2.4468 12.71982,-2.6507 -0.18583,-0.1858 -10.8693,-1.7308 -15.45779,-2.2354 -4.95849,-0.5453 -14.71901,-0.5599 -18.27388,-0.027 z m 33.42797,3.3918 c -1.76086,0.4556 -2.55325,0.7359 -1.76086,0.6228 0.79239,-0.1132 3.57775,-0.2292 6.18969,-0.2579 l 4.749,-0.052 -2.7747,-0.536 c -1.52608,-0.2949 -2.87074,-0.5517 -2.98812,-0.5708 -0.11739,-0.019 -1.65415,0.3383 -3.41501,0.794 z m -3.20156,2.7653 c -13.45342,2.0985 -23.83607,6.4162 -24.8158,10.3197 -0.41369,1.6483 0.63834,3.4265 2.87713,4.86312 2.037,1.30714 2.63246,2.11098 1.55535,2.09958 -1.01436,-0.0107 -6.65718,-3.40409 -7.55169,-4.5413 -3.22943,-4.1055 -0.68929,-7.203 8.93904,-10.9002 2.46655,-0.9471 2.80955,-1.1678 1.49406,-0.9614 -2.60712,0.4091 -22.07617,0.263 -26.84065,-0.2014 l -4.21624,-0.4109 -2.1869,1.6527 c -5.99335,4.5294 -8.77477,11.7243 -6.35361,16.43534 1.25968,2.45105 4.03065,5.44954 6.50096,7.03473 6.37258,4.08928 21.40621,6.18507 33.36541,4.65137 4.16743,-0.53446 3.78161,-0.13228 4.45381,-4.64265 0.44775,-3.00437 2.03799,-6.81521 4.17128,-9.99607 1.07532,-1.60336 2.033,-3.13172 2.12819,-3.39632 0.0952,-0.2646 0.33768,-0.3268 0.53886,-0.1382 0.20118,0.1887 -0.0548,1.1491 -0.56888,2.13443 -0.51407,0.98529 -1.23094,3.23216 -1.59303,4.99303 -0.36211,1.76085 -1.0316,4.63495 -1.48776,6.38686 -0.45616,1.75191 -0.75239,3.26229 -0.65829,3.35639 0.65933,0.65934 11.90747,-3.00123 17.50564,-5.69698 6.13822,-2.95581 9.50836,-5.18501 11.48427,-7.59636 0.88366,-1.07839 2.9507,-3.06037 4.59344,-4.40427 2.39401,-1.9586 3.06556,-2.3225 3.38365,-1.8335 0.21827,0.3355 0.29819,1.0305 0.1776,1.5443 -0.12058,0.5139 -0.008,1.0646 0.24913,1.2238 0.62476,0.3861 -2.49954,3.57714 -5.89185,6.01767 -4.99095,3.59062 -11.48366,13.09281 -15.2067,22.25526 -1.27106,3.1281 -1.89929,2.92295 6.11953,1.99837 5.69156,-0.65624 7.42457,-0.96964 10.1383,-1.83343 0.86636,-0.27577 1.38735,-0.28746 1.38735,-0.0311 0,0.22576 -0.33617,0.52025 -0.74704,0.65441 -0.41087,0.13416 -2.15146,0.90801 -3.86797,1.71967 -3.51804,1.66349 -8.23679,2.70523 -12.25385,2.70523 l -2.70685,0 -0.6315,2.2411 c -3.68382,13.07316 -3.32706,27.69426 0.86363,35.39394 1.4317,2.63051 4.90296,5.86784 7.88552,7.35411 5.52492,2.75319 13.99438,0.27564 19.838,-5.80316 l 1.76336,-1.83434 0.2535,-9.60471 c 0.22803,-8.64031 1.30141,-19.28742 2.2163,-21.98411 0.1593,-0.46957 -0.49919,0.65159 -1.46331,2.49144 -4.91495,9.37928 -8.8163,12.00821 -13.15555,8.86487 -1.82597,-1.32273 -5.33859,-7.36566 -4.66238,-8.02094 0.19708,-0.19098 0.66827,0.133 1.04708,0.71995 0.37882,0.58696 1.39174,1.78755 2.25094,2.66798 1.27557,1.30709 1.86647,1.60078 3.2208,1.60078 3.25224,0 6.16334,-3.08905 9.85602,-10.45846 3.17154,-6.32939 5.82385,-15.30774 6.93575,-23.47818 0.50557,-3.71504 0.37317,-15.37934 -0.24052,-21.19104 -0.28724,-2.7202 -0.13163,-2.6283 -5.30317,-3.1329 -1.52608,-0.149 -4.04403,-0.5618 -5.59545,-0.9176 -6.61037,-1.5156 -20.70728,-1.6946 -29.19491,-0.3706 z M 433.03,615.35596 c -2.39731,0.69035 -5.18804,1.38596 -6.20162,1.5458 -2.39339,0.37744 -2.91407,0.95668 -3.31066,3.68299 -0.3419,2.35042 -0.33142,8.0083 0.0155,8.3552 0.49247,0.49247 10.43613,1.4707 12.22262,1.20244 l 1.96207,-0.29464 1.60972,-4.06709 c 1.62884,-4.11538 4.91177,-10.48818 7.01406,-13.61562 0.63129,-0.93913 1.27751,-1.91904 1.43604,-2.17757 0.15852,-0.25854 -2.11413,0.56119 -5.05036,1.82162 -2.93623,1.26043 -7.30004,2.85653 -9.69736,3.54687 z m 43.29922,2.35176 c -0.23676,1.87456 -0.37556,3.4632 -0.30844,3.53033 0.0671,0.0671 0.53959,-0.9691 1.04993,-2.30271 0.79593,-2.07989 0.88374,-2.88556 0.61737,-5.66472 l -0.31053,-3.23997 -0.30892,2.13439 c -0.16991,1.1739 -0.50264,3.66812 -0.73941,5.54268 z m -93.46523,-3.47348 c 4.86622,4.30239 21.50678,10.84992 34.71904,13.66084 l 4.70619,1.00124 -0.30432,-3.02969 c -0.16738,-1.66633 -0.3162,-4.15825 -0.33071,-5.53759 l -0.0264,-2.5079 -1.38735,0.2786 c -2.94753,0.59192 -11.74999,1.1032 -15.02645,0.87281 -8.42135,-0.59216 -15.20099,-2.09365 -20.08408,-4.44802 -1.87824,-0.90561 -3.51104,-1.65489 -3.62844,-1.66509 -0.11739,-0.0102 0.49575,0.60846 1.36251,1.3748 z m 92.30431,13.04509 c -2.36351,8.10959 -3.78171,17.80237 -4.41718,30.18932 -0.21268,4.14589 -0.23785,7.94035 -0.0559,8.43214 0.29335,0.79299 0.51338,0.60871 1.94455,-1.62857 6.47267,-10.1184 8.07245,-21.84407 5.90809,-43.30354 l -0.27454,-2.72201 -1.02955,2.72201 c -0.56625,1.4971 -1.5002,4.3369 -2.07544,6.31065 z m -51.57073,4.20184 c 1.76921,13.57747 4.79374,24.30797 9.54448,33.86216 2.13673,4.29716 4.32295,7.61544 5.42336,8.23167 0.44313,0.24815 0.30945,-0.23488 -0.41349,-1.49406 -3.07803,-5.3612 -4.38445,-12.77959 -4.02998,-22.88397 0.19652,-5.60172 0.45443,-7.57413 1.54557,-11.81974 0.72032,-2.80281 1.24452,-5.16117 1.16488,-5.24081 -0.0797,-0.0796 -2.8129,-0.52987 -6.07391,-1.00049 -3.26102,-0.47061 -6.12121,-0.93047 -6.35598,-1.02191 -0.90676,-0.35311 -1.00692,-0.18299 -0.80493,1.36715 z m -6.45196,-70.52586 c 0.70433,0.3225 2.62528,0.6017 4.26875,0.6206 4.20559,0.048 9.06586,0.9975 11.5501,2.2563 1.16373,0.5897 3.55523,2.3691 5.31446,3.9543 4.96761,4.4759 6.85715,5.8715 10.55117,7.7934 3.30225,1.718 9.28066,3.493 11.78569,3.4992 1.44048,0.01 1.35888,0.9968 -0.0995,1.2106 -0.52662,0.077 -4.54555,-0.925 -8.93096,-2.2273 -4.3854,-1.3023 -10.0865,-2.8612 -12.6691,-3.4643 -2.58259,-0.603 -7.10592,-1.8514 -10.05182,-2.7742 -9.8229,-3.0768 -11.5054,-4.2032 -11.5054,-7.703 0,-1.8721 -0.0998,-2.0651 -1.28063,-2.4767 -0.70435,-0.2456 -1.28063,-0.6486 -1.28063,-0.8956 0,-0.5859 0.76348,-0.5187 2.34782,0.2067 z m 66.93821,38.3662 c 0.32651,3.49656 1.9447,8.34948 3.86933,11.60404 0.81967,1.38606 3.60924,4.79526 6.19906,7.576 6.085,6.53358 6.58197,7.68413 6.66665,15.43417 0.0353,3.22745 0.27667,6.06964 0.57697,6.7928 0.33312,0.80221 0.36959,1.39016 0.10279,1.65696 -0.2668,0.2668 -0.63007,-0.10468 -1.02376,-1.04692 -0.57183,-1.36858 -0.71788,-1.45019 -2.32171,-1.29724 -2.30095,0.21943 -4.10681,-0.78601 -5.41184,-3.01314 -1.30023,-2.21891 -3.74479,-10.64272 -5.17122,-17.81969 -0.58329,-2.93477 -1.93566,-8.56309 -3.00526,-12.50736 -1.87346,-6.90862 -2.20724,-9.66532 -1.20986,-9.99202 0.29384,-0.096 0.56751,0.8846 0.72885,2.6124 z"
       style="fill:#008000" />
  </g>
</svg>
