<?xml version="1.0" encoding="UTF-8" standalone="no"?>
<!-- Created with Inkscape (http://www.inkscape.org/) -->

<svg
   xmlns:dc="http://purl.org/dc/elements/1.1/"
   xmlns:cc="http://creativecommons.org/ns#"
   xmlns:rdf="http://www.w3.org/1999/02/22-rdf-syntax-ns#"
   xmlns:svg="http://www.w3.org/2000/svg"
   xmlns="http://www.w3.org/2000/svg"
   xmlns:sodipodi="http://sodipodi.sourceforge.net/DTD/sodipodi-0.dtd"
   xmlns:inkscape="http://www.inkscape.org/namespaces/inkscape"
   width="248.86838"
   height="256.00034"
   id="svg2"
   version="1.1"
   inkscape:version="0.48.5 r10040"
   sodipodi:docname="border-corner-left-bottom.svg">
  <defs
     id="defs4" />
  <sodipodi:namedview
     id="base"
     pagecolor="#ffffff"
     bordercolor="#666666"
     borderopacity="1.0"
     inkscape:pageopacity="0.0"
     inkscape:pageshadow="2"
     inkscape:zoom="0.66"
     inkscape:cx="15.42482"
     inkscape:cy="289.47976"
     inkscape:document-units="px"
     inkscape:current-layer="layer1"
     showgrid="false"
     inkscape:window-width="1440"
     inkscape:window-height="784"
     inkscape:window-x="0"
     inkscape:window-y="0"
     inkscape:window-maximized="1"
     fit-margin-top="0"
     fit-margin-left="0"
     fit-margin-right="0"
     fit-margin-bottom="0" />
  <metadata
     id="metadata7">
    <rdf:RDF>
      <cc:Work
         rdf:about="">
        <dc:format>image/svg+xml</dc:format>
        <dc:type
           rdf:resource="http://purl.org/dc/dcmitype/StillImage" />
        <dc:title></dc:title>
      </cc:Work>
    </rdf:RDF>
  </metadata>
  <g
     inkscape:label="Layer 1"
     inkscape:groupmode="layer"
     id="layer1"
     transform="translate(-259.56558,-799.92745)">
    <path
       style="fill:#008000"
       d="m 507.47405,1023.0364 c -6.491,-1.6218 -19.9728,-2.6208 -30.1815,-2.2365 -4.0976,0.1542 -7.546,0.3762 -7.663,0.4933 -0.9771,0.977 -1.7071,25.7556 -0.94,31.9037 0.1702,1.3639 0.1596,2.5723 -0.024,2.6855 -0.4221,0.2609 -0.5684,-0.375 -1.859,-8.0805 -1.2381,-7.3925 -1.3586,-13.4207 -0.4186,-20.9562 0.3491,-2.799 0.559,-5.1649 0.4664,-5.2575 -0.333,-0.333 -8.7661,0.7899 -18.60993,2.478 -16.49047,2.8278 -18.72641,3.0736 -29.02756,3.1908 -10.40036,0.1184 -12.49779,0.4012 -24.75881,3.3386 -7.35128,1.7611 -10.40343,2.8491 -12.73919,4.5412 -2.65057,1.92 -2.89482,2.6856 -1.3583,4.2574 2.38168,2.4364 2.13459,4.9683 -0.61272,6.2784 -1.34459,0.6412 -1.56732,0.6467 -2.24878,0.056 -0.416,-0.3607 -2.15089,-1.3795 -3.85531,-2.264 -5.12794,-2.6613 -6.9538,-5.6925 -4.69154,-7.7888 1.18724,-1.1001 2.77286,-1.5121 10.35174,-2.6897 3.28695,-0.5107 7.56979,-1.3901 9.51742,-1.9542 4.41819,-1.2796 11.28251,-2.8903 15.34811,-3.6015 1.70217,-0.2978 3.09485,-0.7027 3.09485,-0.8999 0,-0.1972 -0.34801,-0.3585 -0.77336,-0.3585 -1.6989,0 -7.74553,-1.8623 -11.01646,-3.3929 -3.51917,-1.6468 -7.64735,-4.2471 -10.47259,-6.5967 -1.7783,-1.479 -2.07481,-1.4918 -10.18017,-0.4413 -14.16102,1.8355 -26.8386,5.9902 -36.24197,11.8774 -2.59556,1.625 -2.58895,1.6325 2.0919,2.3781 7.41333,1.1808 19.65589,0.8994 26.86751,-0.6177 4.19468,-0.8823 9.48289,-2.9157 11.84266,-4.5537 1.62189,-1.1257 2.48176,-1.4274 4.0689,-1.4276 2.34385,-4e-4 3.5704,0.8972 3.12854,2.2894 -0.20705,0.6523 -1.05689,1.1214 -3.17431,1.752 -7.47235,2.2254 -14.17762,3.5942 -20.90113,4.2669 -5.78227,0.5786 -20.23139,0.5664 -25.63591,-0.022 l -4.2641,-0.4639 -5.25063,2.9416 c -6.69607,3.7513 -10.51953,5.4678 -14.00159,6.286 -5.24844,1.2332 -11.82064,0.6768 -17.74964,-1.5027 -6.6304,-2.4374 -14.529,-8.6481 -16.6676,-13.1057 -2.9293,-6.1059 -9.1639,-12.0511 -12.6316,-12.0454 -3.1127,0 -5.7007,3.8829 -5.357,8.0269 0.1746,2.1057 0.385,2.531 1.9958,4.0335 1.9018,1.774 2.6634,1.8823 6.6553,0.9464 l 1.2806,-0.3002 -1.3018,1.3426 c -1.7788,1.8345 -3.8235,2.1284 -6.3384,0.9109 -2.7887,-1.35 -3.6721,-3.0104 -3.6717,-6.9015 3e-4,-2.5895 0.2207,-3.6169 1.2364,-5.764 1.5164,-3.2053 2.575,-4.0037 5.3084,-4.0037 3.1328,0 6.6831,2.0536 9.39,5.4315 2.1681,2.7056 2.8257,2.861 2.8409,0.6715 0.013,-1.8991 2.3929,-6.0375 4.1241,-7.1718 1.1158,-0.7311 2.7124,-0.5092 2.7124,0.3769 0,0.2922 -0.5679,0.9512 -1.2621,1.4644 -1.8017,1.3321 -3.5499,4.5113 -3.5499,6.4557 0,4.5784 5.5004,11.1596 12.0689,14.4401 9.5008,4.745 17.3435,4.3456 29.61067,-1.5079 4.96107,-2.3672 5.04451,-2.4303 4.05533,-3.0655 -1.74155,-1.1182 -5.91904,-5.2454 -5.91904,-5.8477 0,-0.8171 0.18021,-0.7511 2.49912,0.9148 1.14082,0.8196 3.32209,1.9599 4.84726,2.534 l 2.77303,1.0437 5.81937,-2.9141 c 9.15629,-4.5853 18.73931,-7.7489 28.45631,-9.3942 4.02031,-0.6807 15.46877,-2.1483 16.77427,-2.1503 0.18674,-3e-4 -0.63566,-1.2011 -1.82755,-2.6685 -1.19191,-1.4674 -2.63987,-3.6615 -3.21771,-4.8758 -2.4827,-5.2172 -3.12435,-11.51983 -1.56089,-15.33183 0.47296,-1.15314 0.96758,-2.59313 1.09915,-3.19997 0.13158,-0.60684 1.24957,-2.11369 2.48443,-3.34855 7.9398,-7.9398 25.44327,-14.78722 43.82526,-17.14462 3.41889,-0.43845 3.93083,-0.61342 4.10992,-1.40467 0.11251,-0.49712 0.59689,-2.72874 1.07639,-4.95917 3.31654,-15.42713 8.95683,-29.0403 15.49345,-37.39438 2.32339,-2.96939 3.14801,-3.55114 7.52929,-5.3117 5.04236,-2.02619 11.99441,0.0199 16.80361,4.9456 1.3297,1.36197 2.49,2.39532 2.5784,2.29633 0.088,-0.099 0.3883,-1.81277 0.6665,-3.80842 2.1878,-15.69273 6.1136,-28.86909 12.4523,-41.79412 l 3.2437,-6.61413 -0.7488,-2.91066 c -0.4117,-1.60086 -1.2593,-3.88726 -1.8834,-5.08088 -0.6241,-1.19362 -1.0074,-2.29448 -0.8517,-2.44636 0.4496,-0.43848 3.6493,3.37531 4.6031,5.48669 l 0.8679,1.92094 2.3193,-4.90907 c 1.2757,-2.69998 3.0124,-6.92606 3.8593,-9.39126 1.4774,-4.29986 1.5406,-4.72532 1.5541,-10.45846 0.012,-5.15181 -0.1236,-6.38849 -0.9841,-8.96439 -2.2681,-6.79012 -5.9207,-12.05663 -9.5954,-13.83555 -3.2291,-1.56317 -5.3117,-1.03212 -8.1132,2.06883 -1.7202,1.90406 -2.1954,2.09164 -2.6037,1.02775 -0.7782,-2.02805 4.4355,-6.12262 7.7962,-6.12262 l 1.4722,0 -2.2194,-2.34669 c -3.0295,-3.2031 -4.506,-6.47656 -4.4794,-9.93044 0.018,-2.3091 0.1778,-2.8366 1.1775,-3.87999 1.9595,-2.04535 4.4969,-3.05226 7.6916,-3.05226 2.6394,0 2.9539,0.1036 4.4354,1.46127 1.5696,1.4385 1.5944,1.51111 1.5944,4.66124 0,2.80365 -0.1288,3.33711 -1.0401,4.30721 -1.333,1.41898 -2.0483,0.80648 -1.1305,-0.9682 1.877,-3.62985 -0.6377,-8.18089 -4.5205,-8.18089 -2.6074,0 -4.8009,1.3547 -5.9129,3.65179 -0.8598,1.77596 -0.9022,2.15015 -0.4249,3.74945 0.2915,0.97713 0.8451,2.3876 1.2302,3.13439 1.1263,2.1847 5.6377,7.02179 7.1308,7.64564 3.7087,1.54962 8.4332,8.90443 10.6691,16.6091 1.4637,5.04391 1.87,13.03602 0.8949,17.60711 -0.9236,4.33067 -3.1273,9.50961 -6.9065,16.23133 l -3.2398,5.76224 0.2853,3.27029 c 0.4809,5.51198 -1.144,24.34609 -2.8015,32.4726 -0.9626,4.71951 -3.4132,13.78229 -4.5595,16.86158 -0.6509,1.74855 -1.0005,2.15838 -1.9334,2.26712 -0.9947,0.11594 -1.1733,-0.051 -1.4112,-1.31938 -0.29,-1.54541 0.3916,-4.79244 1.0975,-5.22868 0.6131,-0.37895 2.4067,-4.0455 3.6079,-7.37548 3.0826,-8.5456 4.9723,-23.7189 4.1836,-33.5924 l -0.3409,-4.26876 -1.7075,2.98813 c -6.7062,11.73583 -11.2325,25.52771 -13.6592,41.62038 -0.608,4.03234 -0.6058,4.06395 0.3955,5.57837 3.7887,5.73058 7.0739,15.65138 7.0739,21.36196 0,2.68729 0.5916,1.91574 1.4272,-1.86138 0.9021,-4.07743 2.4078,-9.5771 4.1197,-15.04737 0.6613,-2.11303 1.8946,-7.16845 2.7408,-11.23427 1.6874,-8.10877 2.3132,-9.75483 3.8552,-10.14187 2.402,-0.60285 3.7729,0.93112 5.5796,6.24308 0.5756,1.69218 1.2576,3.33096 1.5154,3.64173 1.0167,1.22507 -1.1259,4.45587 -2.9408,4.43431 -1.326,-0.0157 -2.2875,-0.65931 -3.0092,-2.01409 -0.666,-1.25024 -1.1437,-1.21122 -2.4519,0.20032 -1.8303,1.97495 -3.8533,6.86297 -5.8799,14.20674 -3.4183,12.38722 -4.5291,17.85516 -4.5291,22.29321 0,6.93916 -1.0613,13.72771 -5.1233,32.77375 -2.4729,11.59528 -4.2681,21.58848 -4.2681,23.75978 l 0,1.1168 3.0949,-0.2667 c 7.6576,-0.6599 15.5998,-0.7944 18.6514,-0.3159 5.1208,0.8028 16.6726,4.1435 16.6726,4.8214 0,0.2374 -0.4323,0.3236 -0.9604,0.1916 z m -31.9421,-74.26067 c -0.8778,-5.85894 -3.3601,-13.59174 -4.8713,-15.17446 -1.3421,-1.40573 -1.3761,27.75323 -0.042,36.18631 0.7765,4.90851 2.4468,12.92375 2.6507,12.71982 0.1858,-0.18583 1.7308,-10.8693 2.2354,-15.45779 0.5453,-4.95849 0.5599,-14.71901 0.027,-18.27388 z m -3.3918,33.42797 c -0.4556,-1.76086 -0.7359,-2.55325 -0.6228,-1.76086 0.1132,0.79239 0.2292,3.57775 0.2579,6.18969 l 0.052,4.749 0.536,-2.7747 c 0.2949,-1.52608 0.5517,-2.87074 0.5708,-2.98812 0.019,-0.11739 -0.3383,-1.65415 -0.794,-3.41501 z m -2.7653,-3.20156 c -2.0985,-13.45342 -6.4162,-23.83607 -10.3197,-24.8158 -1.6483,-0.41369 -3.4265,0.63834 -4.86312,2.87713 -1.30714,2.037 -2.11098,2.63246 -2.09958,1.55535 0.0107,-1.01436 3.40409,-6.65718 4.5413,-7.55169 4.1055,-3.22943 7.203,-0.68929 10.9002,8.93904 0.9471,2.46655 1.1678,2.80955 0.9614,1.49406 -0.4091,-2.60712 -0.263,-22.07617 0.2014,-26.84065 l 0.4109,-4.21624 -1.6527,-2.1869 c -4.5294,-5.99335 -11.7243,-8.77477 -16.43534,-6.35361 -2.45105,1.25968 -5.44954,4.03065 -7.03473,6.50096 -4.08928,6.37258 -6.18507,21.40621 -4.65137,33.36541 0.53446,4.16743 0.13228,3.78161 4.64265,4.45381 3.00437,0.44775 6.81521,2.03799 9.99607,4.17128 1.60336,1.07532 3.13172,2.033 3.39632,2.12819 0.2646,0.0952 0.3268,0.33768 0.1382,0.53886 -0.1887,0.20118 -1.1491,-0.0548 -2.13443,-0.56888 -0.98529,-0.51407 -3.23216,-1.23094 -4.99303,-1.59303 -1.76085,-0.36211 -4.63495,-1.0316 -6.38686,-1.48776 -1.75191,-0.45616 -3.26229,-0.75239 -3.35639,-0.65829 -0.65934,0.65933 3.00123,11.90747 5.69698,17.50564 2.95581,6.13822 5.18501,9.50836 7.59636,11.48427 1.07839,0.88366 3.06037,2.95071 4.40427,4.59341 1.9586,2.394 2.3225,3.0656 1.8335,3.3837 -0.3355,0.2183 -1.0305,0.2982 -1.5443,0.1776 -0.5139,-0.1206 -1.0646,-0.01 -1.2238,0.2491 -0.3861,0.6248 -3.57714,-2.4995 -6.01767,-5.8918 -3.59062,-4.99099 -13.09281,-11.4837 -22.25526,-15.20674 -3.1281,-1.27106 -2.92295,-1.89929 -1.99837,6.11953 0.65624,5.69156 0.96964,7.42457 1.83343,10.13831 0.27577,0.8664 0.28746,1.3873 0.0311,1.3873 -0.22576,0 -0.52025,-0.3361 -0.65441,-0.747 -0.13416,-0.4109 -0.90801,-2.15146 -1.71967,-3.86797 -1.66349,-3.51804 -2.70523,-8.23679 -2.70523,-12.25385 l 0,-2.70685 -2.2411,-0.6315 c -13.07316,-3.68382 -27.69426,-3.32706 -35.39394,0.86363 -2.63051,1.4317 -5.86784,4.90296 -7.35411,7.88552 -2.75319,5.52492 -0.27564,13.99442 5.80316,19.83802 l 1.83434,1.7633 9.60471,0.2535 c 8.64031,0.2281 19.28742,1.3015 21.98411,2.2163 0.46957,0.1593 -0.65159,-0.4991 -2.49144,-1.4633 -9.37928,-4.9149 -12.00821,-8.8163 -8.86487,-13.1555 1.32273,-1.82599 7.36566,-5.33861 8.02094,-4.6624 0.19098,0.19708 -0.133,0.66827 -0.71995,1.04708 -0.58696,0.37882 -1.78755,1.39174 -2.66798,2.25094 -1.30709,1.27558 -1.60078,1.86648 -1.60078,3.22078 0,3.2523 3.08905,6.1634 10.45846,9.856 6.32939,3.1716 15.30774,5.8239 23.47818,6.9358 3.71504,0.5056 15.37934,0.3732 21.19104,-0.2405 2.7202,-0.2873 2.6283,-0.1317 3.1329,-5.3032 0.149,-1.5261 0.5618,-4.044 0.9176,-5.5954 1.5156,-6.6104 1.6946,-20.70733 0.3706,-29.19496 z m -28.80305,-2.04439 c -0.69035,-2.39731 -1.38596,-5.18804 -1.5458,-6.20162 -0.37744,-2.39339 -0.95668,-2.91407 -3.68299,-3.31066 -2.35042,-0.3419 -8.0083,-0.33142 -8.3552,0.0155 -0.49247,0.49247 -1.4707,10.43613 -1.20244,12.22262 l 0.29464,1.96207 4.06709,1.60972 c 4.11538,1.62884 10.48818,4.91177 13.61562,7.01406 0.93913,0.63129 1.91904,1.27751 2.17757,1.43604 0.25854,0.15852 -0.56119,-2.11413 -1.82162,-5.05036 -1.26043,-2.93623 -2.85653,-7.30004 -3.54687,-9.69736 z m -2.35176,43.29925 c -1.87456,-0.2368 -3.4632,-0.3756 -3.53033,-0.3085 -0.0671,0.067 0.9691,0.5396 2.30271,1.05 2.07989,0.7959 2.88556,0.8837 5.66472,0.6173 l 3.23997,-0.3105 -2.13439,-0.3089 c -1.1739,-0.1699 -3.66812,-0.5027 -5.54268,-0.7394 z m 3.47348,-93.46526 c -4.30239,4.86622 -10.84992,21.50678 -13.66084,34.71904 l -1.00124,4.70619 3.02969,-0.30432 c 1.66633,-0.16738 4.15825,-0.3162 5.53759,-0.33071 l 2.5079,-0.0264 -0.2786,-1.38735 c -0.59192,-2.94753 -1.1032,-11.74999 -0.87281,-15.02645 0.59216,-8.42135 2.09365,-15.20099 4.44802,-20.08408 0.90561,-1.87824 1.65489,-3.51104 1.66509,-3.62844 0.0102,-0.11739 -0.60846,0.49575 -1.3748,1.36251 z m -13.04509,92.30436 c -8.10959,-2.3636 -17.80237,-3.7818 -30.18932,-4.4172 -4.14589,-0.2127 -7.94035,-0.2379 -8.43214,-0.056 -0.79299,0.2933 -0.60871,0.5134 1.62857,1.9445 10.1184,6.4727 21.84407,8.0725 43.30354,5.9081 l 2.72201,-0.2745 -2.72201,-1.0296 c -1.4971,-0.5662 -4.3369,-1.5002 -6.31065,-2.0754 z m -4.20184,-51.57078 c -13.57747,1.76921 -24.30797,4.79374 -33.86216,9.54448 -4.29716,2.13673 -7.61544,4.32295 -8.23167,5.42336 -0.24815,0.44313 0.23488,0.30945 1.49406,-0.41349 5.3612,-3.07803 12.77959,-4.38445 22.88397,-4.02998 5.60172,0.19652 7.57413,0.45443 11.81974,1.54557 2.80281,0.72032 5.16117,1.24452 5.24081,1.16488 0.0796,-0.0797 0.52987,-2.8129 1.00049,-6.07391 0.47061,-3.26102 0.93047,-6.12121 1.02191,-6.35598 0.35311,-0.90676 0.18299,-1.00692 -1.36715,-0.80493 z m 70.52586,-6.45196 c -0.3225,0.70433 -0.6017,2.62528 -0.6206,4.26875 -0.048,4.20559 -0.9975,9.06586 -2.2563,11.5501 -0.5897,1.16373 -2.3691,3.55523 -3.9543,5.31446 -4.4759,4.96761 -5.8715,6.85715 -7.7934,10.55117 -1.718,3.30225 -3.493,9.28066 -3.4992,11.78566 -0.01,1.4405 -0.9968,1.3589 -1.2106,-0.1 -0.077,-0.5266 0.925,-4.54552 2.2273,-8.93093 1.3023,-4.3854 2.8612,-10.0865 3.4643,-12.6691 0.603,-2.58259 1.8514,-7.10592 2.7742,-10.05182 3.0768,-9.8229 4.2032,-11.5054 7.703,-11.5054 1.8721,0 2.0651,-0.0998 2.4767,-1.28063 0.2456,-0.70435 0.6486,-1.28063 0.8956,-1.28063 0.5859,0 0.5187,0.76348 -0.2067,2.34782 z m -38.3662,66.93824 c -3.49656,0.3265 -8.34948,1.9447 -11.60404,3.8693 -1.38606,0.8197 -4.79526,3.6092 -7.576,6.1991 -6.53358,6.085 -7.68413,6.5819 -15.43417,6.6666 -3.22745,0.035 -6.06964,0.2767 -6.7928,0.577 -0.80221,0.3331 -1.39016,0.3696 -1.65696,0.1028 -0.2668,-0.2668 0.10468,-0.6301 1.04692,-1.0238 1.36858,-0.5718 1.45019,-0.7179 1.29724,-2.3217 -0.21943,-2.3009 0.78601,-4.1068 3.01314,-5.4118 2.21891,-1.3003 10.64272,-3.7448 17.81969,-5.1713 2.93477,-0.5832 8.56309,-1.9356 12.50736,-3.0052 6.90862,-1.8735 9.66532,-2.2073 9.99202,-1.2099 0.096,0.2939 -0.8846,0.5675 -2.6124,0.7289 z"
       id="path3176"
       inkscape:connector-curvature="0" />
  </g>
</svg>
