<?xml version="1.0" encoding="UTF-8" standalone="no"?>
<!-- Created with Inkscape (http://www.inkscape.org/) -->

<svg
   xmlns:dc="http://purl.org/dc/elements/1.1/"
   xmlns:cc="http://creativecommons.org/ns#"
   xmlns:rdf="http://www.w3.org/1999/02/22-rdf-syntax-ns#"
   xmlns:svg="http://www.w3.org/2000/svg"
   xmlns="http://www.w3.org/2000/svg"
   xmlns:sodipodi="http://sodipodi.sourceforge.net/DTD/sodipodi-0.dtd"
   xmlns:inkscape="http://www.inkscape.org/namespaces/inkscape"
   width="248.86838"
   height="256.00003"
   id="svg2"
   version="1.1"
   inkscape:version="0.48.5 r10040"
   sodipodi:docname="logo-1.svg">
  <defs
     id="defs4" />
  <sodipodi:namedview
     id="base"
     pagecolor="#ffffff"
     bordercolor="#666666"
     borderopacity="1.0"
     inkscape:pageopacity="0.0"
     inkscape:pageshadow="2"
     inkscape:zoom="0.66"
     inkscape:cx="219.19193"
     inkscape:cy="-4.09127"
     inkscape:document-units="px"
     inkscape:current-layer="layer1"
     showgrid="false"
     inkscape:window-width="1440"
     inkscape:window-height="784"
     inkscape:window-x="0"
     inkscape:window-y="0"
     inkscape:window-maximized="1"
     fit-margin-top="0"
     fit-margin-left="0"
     fit-margin-right="0"
     fit-margin-bottom="0" />
  <metadata
     id="metadata7">
    <rdf:RDF>
      <cc:Work
         rdf:about="">
        <dc:format>image/svg+xml</dc:format>
        <dc:type
           rdf:resource="http://purl.org/dc/dcmitype/StillImage" />
        <dc:title></dc:title>
      </cc:Work>
    </rdf:RDF>
  </metadata>
  <g
     inkscape:label="Layer 1"
     inkscape:groupmode="layer"
     id="layer1"
     transform="translate(-3.5660561,-543.92776)">
    <path
       inkscape:connector-curvature="0"
       id="path3174"
       d="m 4.5259561,576.81916 c 6.4909999,1.62176 19.9727999,2.62078 30.1814999,2.23647 4.0976,-0.15426 7.546,-0.37624 7.663,-0.4933 0.9771,-0.97705 1.7071,-25.75567 0.94,-31.90377 -0.1702,-1.36382 -0.1596,-2.57226 0.024,-2.68542 0.4221,-0.26088 0.5684,0.37495 1.859,8.08045 1.2381,7.39253 1.3586,13.42072 0.4186,20.95626 -0.3491,2.79899 -0.559,5.16485 -0.4664,5.25746 0.333,0.33298 8.7661,-0.78991 18.60993,-2.47796 16.49047,-2.82785 18.72641,-3.07364 29.02756,-3.19087 10.400364,-0.11836 12.497794,-0.40119 24.758814,-3.33856 7.35128,-1.76116 10.40343,-2.84916 12.73919,-4.54118 2.65057,-1.92006 2.89482,-2.68563 1.3583,-4.25745 -2.38168,-2.43643 -2.13459,-4.96829 0.61272,-6.27839 1.34459,-0.64119 1.56732,-0.64673 2.24878,-0.0559 0.416,0.36066 2.15089,1.37947 3.85531,2.26402 5.12794,2.66127 6.9538,5.69251 4.69154,7.78877 -1.18724,1.10012 -2.77286,1.51211 -10.35174,2.68971 -3.28695,0.51072 -7.56979,1.3901 -9.51742,1.95418 -4.41819,1.2796 -11.28251,2.89037 -15.34811,3.60156 -1.70217,0.29775 -3.09485,0.7027 -3.09485,0.89988 0,0.19718 0.34801,0.35851 0.77336,0.35851 1.6989,0 7.74553,1.86226 11.01646,3.39288 3.51917,1.64678 7.64735,4.24714 10.47259,6.59675 1.7783,1.4789 2.07481,1.49176 10.18017,0.4412 14.16102,-1.83544 26.8386,-5.99018 36.24197,-11.87735 2.59556,-1.625 2.58895,-1.6325 -2.0919,-2.37807 -7.41333,-1.18081 -19.65589,-0.89938 -26.86751,0.61763 -4.19468,0.88237 -9.48289,2.91578 -11.84266,4.55369 -1.62189,1.12576 -2.48176,1.42747 -4.0689,1.42768 -2.34385,3.3e-4 -3.5704,-0.89724 -3.12854,-2.28943 0.20705,-0.65235 1.05689,-1.1214 3.17431,-1.75199 7.47235,-2.22536 14.17762,-3.59423 20.90113,-4.26694 5.78227,-0.57854 20.23139,-0.56637 25.63591,0.0216 l 4.2641,0.46388 5.25063,-2.94153 c 6.69607,-3.75132 10.51953,-5.46785 14.00159,-6.28603 5.24845,-1.23323 11.82061,-0.6768 17.74966,1.50275 6.63037,2.43737 14.52896,8.64802 16.66755,13.10568 2.92932,6.10583 9.16394,12.0511 12.63167,12.04542 3.11268,-0.005 5.70065,-3.88292 5.357,-8.02691 -0.17463,-2.10575 -0.38505,-2.53101 -1.99584,-4.03354 -1.90183,-1.774 -2.6634,-1.8823 -6.65525,-0.94643 l -1.28063,0.30024 1.30179,-1.3426 c 1.77875,-1.8345 3.82348,-2.12835 6.33839,-0.91091 2.78875,1.35001 3.67211,3.01042 3.6717,6.9015 -2.9e-4,2.58949 -0.22066,3.61691 -1.23641,5.76397 -1.51636,3.2053 -2.57502,4.00378 -5.30834,4.00378 -3.1328,0 -6.68316,-2.05367 -9.39005,-5.43158 -2.16806,-2.70552 -2.82565,-2.86095 -2.84087,-0.67148 -0.0132,1.89909 -2.39297,6.03751 -4.12412,7.17179 -1.11581,0.73111 -2.71243,0.50926 -2.71243,-0.3769 0,-0.2922 0.56794,-0.95117 1.26208,-1.46437 1.80171,-1.33207 3.54998,-4.51129 3.54998,-6.45566 0,-4.57847 -5.50047,-11.15962 -12.06896,-14.44015 -9.50073,-4.74499 -17.34345,-4.34562 -29.61065,1.50788 -4.96107,2.36725 -5.04451,2.43033 -4.05533,3.06549 1.74155,1.11826 5.91904,5.24545 5.91904,5.84776 0,0.81709 -0.18021,0.75111 -2.49912,-0.91485 -1.14082,-0.8196 -3.32209,-1.95988 -4.84726,-2.53395 l -2.77303,-1.04376 -5.81937,2.91418 c -9.15629,4.58523 -18.73931,7.74882 -28.45631,9.39414 -4.02031,0.68073 -15.46877,2.14833 -16.77427,2.15032 -0.18674,2.8e-4 0.63566,1.2011 1.82755,2.66849 1.19191,1.46739 2.63987,3.66148 3.21771,4.87577 2.4827,5.21724 3.12435,11.51987 1.56089,15.33186 -0.47296,1.15315 -0.96758,2.59313 -1.09915,3.19997 -0.13158,0.60685 -1.24957,2.11369 -2.48443,3.34855 -7.9398,7.9398 -25.44327,14.78722 -43.825264,17.14462 -3.41889,0.43846 -3.93083,0.61342 -4.10992,1.40468 -0.11251,0.49711 -0.59689,2.72873 -1.07639,4.95916 -3.31654,15.42713 -8.95683,29.0403 -15.49345,37.39438 -2.32339,2.96939 -3.14801,3.55114 -7.52929,5.3117 -5.04236,2.02619 -11.99441,-0.0199 -16.80361,-4.9456 -1.3297,-1.36197 -2.49,-2.39532 -2.5784,-2.29633 -0.088,0.099 -0.3883,1.81277 -0.6665,3.80842 -2.1878,15.69273 -6.1136,28.86909 -12.4523,41.79412 l -3.2437,6.61413 0.7488,2.91066 c 0.4117,1.60086 1.2593,3.88726 1.8834,5.08088 0.6241,1.19362 1.0074,2.29448 0.8517,2.44636 -0.4496,0.43848 -3.6493,-3.37531 -4.6031,-5.48669 l -0.8679,-1.92094 -2.3193,4.90907 c -1.2757,2.69998 -3.0124,6.92606 -3.8593,9.39126 -1.4774,4.29986 -1.5406,4.72532 -1.5541,10.45846 -0.012,5.15181 0.1236,6.38849 0.9841,8.96439 2.2681,6.79012 5.9207,12.05663 9.5954,13.83555 3.2291,1.56317 5.3117,1.03212 8.1132,-2.06883 1.7202,-1.90406 2.1954,-2.09164 2.6037,-1.02775 0.7782,2.02805 -4.4355,6.12262 -7.7962,6.12262 l -1.4722,0 2.2194,2.34669 c 3.0295,3.2031 4.506,6.47656 4.4794,9.93044 -0.018,2.3091 -0.1778,2.8366 -1.1775,3.87999 -1.9595,2.04538 -4.4969,3.05229 -7.6916,3.05229 -2.6394,0 -2.9539,-0.1036 -4.4354,-1.46127 -1.5696,-1.4385 -1.5944,-1.51111 -1.5944,-4.66124 0,-2.80365 0.1288,-3.33711 1.0401,-4.30721 1.333,-1.41898 2.0483,-0.80648 1.1305,0.9682 -1.877,3.62985 0.6377,8.18089 4.5205,8.18089 2.6074,0 4.8009,-1.3547 5.9129,-3.65179 0.8598,-1.77596 0.9022,-2.15015 0.4249,-3.74945 -0.2915,-0.97713 -0.8451,-2.3876 -1.2302,-3.13439 -1.1263,-2.1847 -5.6377,-7.02179 -7.1308,-7.64564 -3.7087,-1.54962 -8.4332,-8.90443 -10.6691,-16.6091 -1.4637,-5.04391 -1.87,-13.03602 -0.8949,-17.60711 0.9236,-4.33067 3.1273,-9.50961 6.9065,-16.23133 l 3.2398,-5.76224 -0.2853,-3.27029 c -0.4809,-5.51198 1.144,-24.34609 2.8015,-32.4726 0.9626,-4.71951 3.4132,-13.78229 4.5595,-16.86158 0.6509,-1.74855 1.0005,-2.15838 1.9334,-2.26712 0.9947,-0.11594 1.1733,0.051 1.4112,1.31938 0.29,1.54541 -0.3916,4.79244 -1.0975,5.22868 -0.6131,0.37895 -2.4067,4.0455 -3.6079,7.37548 -3.0826,8.5456 -4.9723,23.7189 -4.1836,33.5924 l 0.3409,4.26876 1.7075,-2.98813 c 6.7062,-11.73583 11.2325,-25.52771 13.6592,-41.62038 0.608,-4.03234 0.6058,-4.06395 -0.3955,-5.57837 -3.7887,-5.73058 -7.0739,-15.65138 -7.0739,-21.36196 0,-2.68729 -0.5916,-1.91574 -1.4272,1.86138 -0.9021,4.07743 -2.4078,9.5771 -4.1197,15.04737 -0.6613,2.11303 -1.8946,7.16845 -2.7408,11.23427 -1.6874,8.10877 -2.3132,9.75483 -3.8552,10.14187 -2.402,0.60285 -3.7729,-0.93112 -5.5796,-6.24308 -0.5756,-1.69218 -1.2576,-3.33096 -1.5154,-3.64173 -1.0167,-1.22507 1.1259,-4.45587 2.9408,-4.43431 1.326,0.0157 2.2875,0.65931 3.0092,2.01409 0.666,1.25024 1.1437,1.21122 2.4519,-0.20032 1.8303,-1.97495 3.8533,-6.86297 5.8799,-14.20674 3.4183,-12.38722 4.5291,-17.85515 4.5291,-22.29321 0,-6.93916 1.0613,-13.7277 5.1233,-32.77375 2.4729,-11.59523 4.2681,-21.58847 4.2681,-23.75976 l 0,-1.11679 -3.0949,0.26668 c -7.6576,0.65985 -15.5998,0.79439 -18.6514,0.31594 -5.1208,-0.80288 -16.6725999,-4.1435 -16.6725999,-4.82147 0,-0.23737 0.4323,-0.32359 0.9604,-0.1916 z m 31.9420999,74.26061 c 0.8778,5.85894 3.3601,13.59174 4.8713,15.17446 1.3421,1.40573 1.3761,-27.75323 0.042,-36.18631 -0.7765,-4.90851 -2.4468,-12.92374 -2.6507,-12.71982 -0.1858,0.18583 -1.7308,10.8693 -2.2354,15.45779 -0.5453,4.9585 -0.5599,14.71901 -0.027,18.27388 z m 3.3918,-33.42797 c 0.4556,1.76086 0.7359,2.55325 0.6228,1.76086 -0.1132,-0.79239 -0.2292,-3.57774 -0.2579,-6.18969 l -0.052,-4.749 -0.536,2.7747 c -0.2949,1.52608 -0.5517,2.87074 -0.5708,2.98813 -0.019,0.11739 0.3383,1.65414 0.794,3.415 z m 2.7653,3.20157 c 2.0985,13.45341 6.4162,23.83606 10.3197,24.81579 1.6483,0.41369 3.4265,-0.63834 4.86312,-2.87712 1.30714,-2.037 2.11098,-2.63247 2.09958,-1.55536 -0.0107,1.01436 -3.40409,6.65718 -4.5413,7.55169 -4.1055,3.22943 -7.203,0.68929 -10.9002,-8.93904 -0.9471,-2.46654 -1.1678,-2.80955 -0.9614,-1.49406 0.4091,2.60713 0.263,22.07617 -0.2014,26.84065 l -0.4109,4.21624 1.6527,2.1869 c 4.5294,5.99335 11.7243,8.77477 16.43534,6.35361 2.45105,-1.25968 5.44954,-4.03065 7.03473,-6.50096 4.08928,-6.37258 6.18507,-21.40621 4.65137,-33.3654 -0.53446,-4.16743 -0.13228,-3.78162 -4.64265,-4.45381 -3.00437,-0.44776 -6.81521,-2.03799 -9.99607,-4.17129 -1.60336,-1.07531 -3.13172,-2.033 -3.39632,-2.12819 -0.2646,-0.0952 -0.3268,-0.33768 -0.1382,-0.53886 0.1887,-0.20118 1.1491,0.0548 2.13443,0.56888 0.98529,0.51407 3.23216,1.23094 4.99303,1.59303 1.76085,0.36211 4.63495,1.0316 6.38686,1.48777 1.75191,0.45616 3.26229,0.75239 3.35639,0.65828 0.65934,-0.65933 -3.00123,-11.90747 -5.69698,-17.50564 -2.95581,-6.13822 -5.18501,-9.50835 -7.59636,-11.48427 -1.07839,-0.88365 -3.06037,-2.9507 -4.40427,-4.59344 -1.9586,-2.39401 -2.3225,-3.06555 -1.8335,-3.38364 0.3355,-0.21828 1.0305,-0.2982 1.5443,-0.17761 0.5139,0.12059 1.0646,0.008 1.2238,-0.24913 0.3861,-0.62476 3.57714,2.49954 6.01767,5.89186 3.59062,4.99094 13.09281,11.48365 22.25526,15.20669 3.1281,1.27106 2.92295,1.89929 1.99837,-6.11953 -0.65624,-5.69156 -0.96964,-7.42457 -1.83343,-10.1383 -0.27577,-0.86636 -0.28746,-1.38734 -0.0311,-1.38734 0.22576,0 0.52025,0.33616 0.65441,0.74703 0.13416,0.41087 0.90801,2.15146 1.71967,3.86798 1.66349,3.51803 2.70523,8.23679 2.70523,12.25384 l 0,2.70685 2.2411,0.6315 c 13.073164,3.68383 27.694264,3.32706 35.393944,-0.86363 2.63051,-1.4317 5.86784,-4.90296 7.35411,-7.88552 2.75319,-5.52492 0.27564,-13.99438 -5.80316,-19.83799 l -1.83434,-1.76337 -9.60471,-0.25349 c -8.64031,-0.22804 -19.287424,-1.30141 -21.984114,-2.21631 -0.46957,-0.1593 0.65159,0.49919 2.49144,1.46332 9.379284,4.91494 12.008214,8.8163 8.864874,13.15554 -1.32273,1.82598 -7.365664,5.33859 -8.020944,4.66238 -0.19098,-0.19708 0.133,-0.66826 0.71995,-1.04708 0.58696,-0.37882 1.78755,-1.39174 2.667984,-2.25094 1.30709,-1.27557 1.60078,-1.86646 1.60078,-3.2208 0,-3.25223 -3.089054,-6.16334 -10.458464,-9.85602 -6.32939,-3.17153 -15.30774,-5.82385 -23.47818,-6.93574 -3.71504,-0.50557 -15.37934,-0.37318 -21.19104,0.24052 -2.7202,0.28723 -2.6283,0.13162 -3.1329,5.30316 -0.149,1.52608 -0.5618,4.04404 -0.9176,5.59545 -1.5156,6.61038 -1.6946,20.70728 -0.3706,29.19492 z m 28.80305,2.04438 c 0.69035,2.39731 1.38596,5.18805 1.5458,6.20163 0.37744,2.39339 0.95668,2.91406 3.68299,3.31065 2.35042,0.3419 8.0083,0.33142 8.3552,-0.0155 0.49247,-0.49246 1.4707,-10.43613 1.20244,-12.22262 l -0.29464,-1.96207 -4.06709,-1.60971 c -4.11538,-1.62884 -10.48818,-4.91178 -13.61562,-7.01407 -0.93913,-0.63129 -1.91904,-1.27751 -2.17757,-1.43604 -0.25854,-0.15852 0.56119,2.11414 1.82162,5.05036 1.26043,2.93623 2.85653,7.30004 3.54687,9.69736 z m 2.35176,-43.29922 c 1.87456,0.23677 3.4632,0.37557 3.53033,0.30845 0.0671,-0.0671 -0.9691,-0.53959 -2.30271,-1.04994 -2.07989,-0.79593 -2.88556,-0.88373 -5.66472,-0.61737 l -3.23997,0.31053 2.13439,0.30893 c 1.1739,0.1699 3.66812,0.50263 5.54268,0.7394 z m -3.47348,93.46523 c 4.30239,-4.86622 10.84992,-21.50678 13.66084,-34.71903 l 1.00124,-4.70619 -3.02969,0.30432 c -1.66633,0.16737 -4.15825,0.31619 -5.53759,0.33071 l -2.5079,0.0264 0.2786,1.38734 c 0.59192,2.94753 1.1032,11.75 0.87281,15.02646 -0.59216,8.42135 -2.09365,15.20099 -4.44802,20.08408 -0.90561,1.87824 -1.65489,3.51104 -1.66509,3.62844 -0.0102,0.11739 0.60846,-0.49575 1.3748,-1.36251 z m 13.04509,-92.30431 c 8.10959,2.36351 17.802374,3.78172 30.189324,4.41718 4.14589,0.21269 7.94035,0.23785 8.43214,0.0559 0.79299,-0.29334 0.60871,-0.51338 -1.62857,-1.94455 -10.1184,-6.47266 -21.844074,-8.07245 -43.303544,-5.90808 l -2.72201,0.27453 2.72201,1.02955 c 1.4971,0.56625 4.3369,1.50021 6.31065,2.07545 z m 4.20184,51.57074 c 13.577474,-1.76921 24.307974,-4.79374 33.862164,-9.54449 4.29716,-2.13672 7.61544,-4.32294 8.23167,-5.42336 0.24815,-0.44313 -0.23488,-0.30945 -1.49406,0.41349 -5.3612,3.07804 -12.77959,4.38445 -22.88397,4.02998 -5.601724,-0.19651 -7.574134,-0.45443 -11.819744,-1.54556 -2.80281,-0.72033 -5.16117,-1.24453 -5.24081,-1.16489 -0.0796,0.0797 -0.52987,2.81291 -1.00049,6.07392 -0.47061,3.26101 -0.93047,6.1212 -1.02191,6.35598 -0.35311,0.90676 -0.18299,1.00692 1.36715,0.80493 z m -70.52586,6.45196 c 0.3225,-0.70434 0.6017,-2.62529 0.6206,-4.26876 0.048,-4.20559 0.9975,-9.06586 2.2563,-11.5501 0.5897,-1.16373 2.3691,-3.55523 3.9543,-5.31446 4.4759,-4.9676 5.8715,-6.85715 7.7934,-10.55117 1.718,-3.30225 3.493,-9.28066 3.4992,-11.78568 0.01,-1.44049 0.9968,-1.35889 1.2106,0.0995 0.077,0.52661 -0.925,4.54554 -2.2273,8.93095 -1.3023,4.38541 -2.8612,10.08651 -3.4643,12.66911 -0.603,2.58259 -1.8514,7.10591 -2.7742,10.05181 -3.0768,9.8229 -4.2032,11.50541 -7.703,11.50541 -1.8721,0 -2.0651,0.0998 -2.4767,1.28062 -0.2456,0.70435 -0.6486,1.28063 -0.8956,1.28063 -0.5859,0 -0.5187,-0.76347 0.2067,-2.34782 z m 38.3662,-66.93822 c 3.49656,-0.32651 8.34948,-1.9447 11.60404,-3.86932 1.38606,-0.81967 4.79526,-3.60925 7.576,-6.19906 6.53358,-6.085 7.68413,-6.58197 15.43417,-6.66665 3.22745,-0.0353 6.06964,-0.27668 6.7928,-0.57697 0.80221,-0.33312 1.39016,-0.3696 1.65696,-0.10279 0.2668,0.26679 -0.10468,0.63006 -1.04692,1.02375 -1.36858,0.57183 -1.45019,0.71789 -1.29724,2.32171 0.21943,2.30096 -0.78601,4.10681 -3.01314,5.41185 -2.21891,1.30023 -10.64272,3.74479 -17.81969,5.17122 -2.93477,0.58328 -8.56309,1.93565 -12.50736,3.00525 -6.90862,1.87346 -9.66532,2.20725 -9.99202,1.20986 -0.096,-0.29384 0.8846,-0.56751 2.6124,-0.72885 z"
       style="fill:#008000" />
  </g>
</svg>
