<?xml version="1.0" encoding="UTF-8" standalone="no"?>
<!-- Created with Inkscape (http://www.inkscape.org/) -->

<svg
   xmlns:dc="http://purl.org/dc/elements/1.1/"
   xmlns:cc="http://creativecommons.org/ns#"
   xmlns:rdf="http://www.w3.org/1999/02/22-rdf-syntax-ns#"
   xmlns:svg="http://www.w3.org/2000/svg"
   xmlns="http://www.w3.org/2000/svg"
   xmlns:sodipodi="http://sodipodi.sourceforge.net/DTD/sodipodi-0.dtd"
   xmlns:inkscape="http://www.inkscape.org/namespaces/inkscape"
   width="512"
   height="512"
   id="svg2"
   version="1.1"
   inkscape:version="0.48.5 r10040"
   sodipodi:docname="New document 1">
  <defs
     id="defs4" />
  <sodipodi:namedview
     id="base"
     pagecolor="#ffffff"
     bordercolor="#666666"
     borderopacity="1.0"
     inkscape:pageopacity="0.0"
     inkscape:pageshadow="2"
     inkscape:zoom="0.66"
     inkscape:cx="222.75799"
     inkscape:cy="248.34313"
     inkscape:document-units="px"
     inkscape:current-layer="layer1"
     showgrid="false"
     inkscape:window-width="1440"
     inkscape:window-height="784"
     inkscape:window-x="0"
     inkscape:window-y="0"
     inkscape:window-maximized="1" />
  <metadata
     id="metadata7">
    <rdf:RDF>
      <cc:Work
         rdf:about="">
        <dc:format>image/svg+xml</dc:format>
        <dc:type
           rdf:resource="http://purl.org/dc/dcmitype/StillImage" />
        <dc:title></dc:title>
      </cc:Work>
    </rdf:RDF>
  </metadata>
  <g
     inkscape:label="Layer 1"
     inkscape:groupmode="layer"
     id="layer1"
     transform="translate(0,-540.36218)">
    <text
       xml:space="preserve"
       style="font-size:40px;font-style:normal;font-variant:normal;font-weight:normal;font-stretch:normal;line-height:125%;letter-spacing:0px;word-spacing:0px;writing-mode:lr-tb;fill:#000000;fill-opacity:1;stroke:none;font-family:give me some sugar;-inkscape-font-specification:give me some sugar"
       x="256.49219"
       y="758.39343"
       id="text2985"
       sodipodi:linespacing="125%"><tspan
         sodipodi:role="line"
         id="tspan2987"
         x="256.49219"
         y="758.39343"
         style="font-size:130px;text-align:center;text-anchor:middle">Smyrna</tspan><tspan
         sodipodi:role="line"
         x="256.49219"
         y="938.39343"
         id="tspan2989"
         style="font-size:130px;text-align:center;text-anchor:middle">Florida</tspan></text>
    <path
       style="fill:#008000"
       d="m 32.891402,1051.4018 c 1.621764,-6.491 2.620782,-19.9728 2.23647,-30.1815 -0.154256,-4.0976 -0.37624,-7.546 -0.493298,-7.663 -0.977046,-0.9771 -25.7556658,-1.7071 -31.9037643,-0.94 -1.3638252,0.1702 -2.57226755,0.1596 -2.68542825,-0.024 -0.26087681,-0.4221 0.37495501,-0.5684 8.08045025,-1.859 7.3925393,-1.2381 13.4207203,-1.3586 20.9562673,-0.4186 2.79899,0.3491 5.164846,0.559 5.257457,0.4664 0.332985,-0.333 -0.789907,-8.7661 -2.477962,-18.60993 -2.827851,-16.49047 -3.073642,-18.72641 -3.19087,-29.02756 -0.118356,-10.40036 -0.401183,-12.49779 -3.338561,-24.75881 -1.761153,-7.35128 -2.849157,-10.40343 -4.541181,-12.73919 -1.920057,-2.65057 -2.685621,-2.89482 -4.257449,-1.3583 -2.436428,2.38168 -4.968283,2.13459 -6.278385,-0.61272 -0.6411896,-1.34459 -0.64673,-1.56732 -0.05593,-2.24878 0.360659,-0.416 1.379466,-2.15089 2.264017,-3.85531 2.661267,-5.12794 5.692511,-6.9538 7.78877,-4.69154 1.100117,1.18724 1.512113,2.77286 2.689709,10.35174 0.510723,3.28695 1.390104,7.56979 1.954182,9.51742 1.279602,4.41819 2.890371,11.28251 3.601559,15.34811 0.297754,1.70217 0.702705,3.09485 0.899884,3.09485 0.197182,0 0.358511,-0.34801 0.358511,-0.77336 0,-1.6989 1.862254,-7.74553 3.392872,-11.01646 1.646784,-3.51917 4.247149,-7.64735 6.59675,-10.47259 1.478906,-1.7783 1.49176,-2.07481 0.441206,-10.18017 -1.835442,-14.16102 -5.990185,-26.8386 -11.877347,-36.24197 -1.625001,-2.59556 -1.632501,-2.58895 -2.378078,2.0919 -1.180811,7.41333 -0.89938,19.65589 0.617629,26.86751 0.882374,4.19468 2.915783,9.48289 4.553697,11.84266 1.125757,1.62189 1.427464,2.48176 1.427682,4.0689 3.29e-4,2.34385 -0.897246,3.5704 -2.289433,3.12854 -0.652347,-0.20705 -1.121398,-1.05689 -1.751996,-3.17431 -2.225359,-7.47235 -3.59423,-14.17762 -4.266939,-20.90113 -0.578532,-5.78227 -0.566366,-20.23139 0.0216,-25.63591 l 0.463886,-4.2641 -2.941537,-5.25063 c -3.751311,-6.69607 -5.46785,-10.51953 -6.28603,-14.00159 -1.233228,-5.24845 -0.676799,-11.82061 1.502756,-17.74966 2.437366,-6.63037 8.648015,-14.52896 13.105678,-16.66755 6.105834,-2.92932 12.051103,-9.16394 12.045425,-12.63167 -0.0051,-3.11268 -3.882926,-5.70065 -8.026916,-5.357 -2.105747,0.17463 -2.531006,0.38505 -4.033536,1.99584 -1.774001,1.90183 -1.882299,2.6634 -0.94643,6.65525 l 0.300239,1.28063 -1.342597,-1.30179 c -1.834503,-1.77875 -2.128359,-3.82348 -0.910919,-6.33839 1.350016,-2.78875 3.010422,-3.67211 6.901501,-3.6717 2.589492,2.9e-4 3.616909,0.22066 5.763975,1.23641 3.205294,1.51636 4.003782,2.57502 4.003782,5.30834 0,3.1328 -2.053673,6.68316 -5.431583,9.39005 -2.705522,2.16806 -2.860951,2.82565 -0.67148,2.84087 1.899093,0.0132 6.037508,2.39297 7.171785,4.12412 0.731114,1.11581 0.509263,2.71243 -0.376897,2.71243 -0.292196,0 -0.951164,-0.56794 -1.464371,-1.26208 -1.332066,-1.80171 -4.511287,-3.54998 -6.455659,-3.54998 -4.578473,0 -11.159616,5.50047 -14.440147,12.06896 -4.744996,9.50073 -4.34562,17.34345 1.507878,29.61065 2.367253,4.96107 2.430332,5.04451 3.065493,4.05533 1.118253,-1.74155 5.245445,-5.91904 5.847754,-5.91904 0.817091,0 0.751118,0.18021 -0.914846,2.49912 -0.819597,1.14082 -1.959876,3.32209 -2.533947,4.84726 l -1.043766,2.77303 2.914182,5.81937 c 4.58523,9.15629 7.748818,18.73931 9.394139,28.45631 0.680734,4.02031 2.148332,15.46877 2.150321,16.77427 2.82e-4,0.18674 1.201105,-0.63566 2.66849,-1.82755 1.467386,-1.19191 3.66148,-2.63987 4.875766,-3.21771 5.217243,-2.4827 11.519871,-3.12435 15.331864,-1.56089 1.153146,0.47296 2.593133,0.96758 3.199975,1.09915 0.606841,0.13158 2.113689,1.24957 3.348544,2.48443 7.939801,7.9398 14.787225,25.44327 17.144621,43.82526 0.438457,3.41889 0.61342,3.93083 1.404678,4.10992 0.497114,0.11251 2.728736,0.59689 4.959162,1.07639 15.427134,3.31654 29.040304,8.95683 37.394384,15.49345 2.96939,2.32339 3.55114,3.14801 5.3117,7.52929 2.02619,5.04236 -0.0199,11.99441 -4.9456,16.80361 -1.36197,1.3297 -2.39532,2.49 -2.29633,2.5784 0.099,0.088 1.81277,0.3883 3.80842,0.6665 15.69273,2.1878 28.86909,6.1136 41.79412,12.4523 l 6.61413,3.2437 2.91066,-0.7488 c 1.60086,-0.4117 3.88726,-1.2593 5.08088,-1.8834 1.19362,-0.6241 2.29448,-1.0074 2.44636,-0.8517 0.43848,0.4496 -3.37531,3.6493 -5.48669,4.6031 l -1.92094,0.8679 4.90907,2.3193 c 2.69998,1.2757 6.92606,3.0124 9.39126,3.8593 4.29986,1.4774 4.72532,1.5406 10.45846,1.5541 5.15181,0.012 6.38849,-0.1236 8.96439,-0.9841 6.79012,-2.2681 12.05663,-5.9207 13.83555,-9.5954 1.56317,-3.2291 1.03212,-5.3117 -2.06883,-8.1132 -1.90406,-1.7202 -2.09164,-2.1954 -1.02775,-2.6037 2.02805,-0.7782 6.12262,4.4355 6.12262,7.7962 l 0,1.4722 2.34669,-2.2194 c 3.2031,-3.0295 6.47656,-4.506 9.93044,-4.4794 2.3091,0.018 2.8366,0.1778 3.87999,1.1775 2.04538,1.9595 3.05229,4.4969 3.05229,7.6916 0,2.6394 -0.1036,2.9539 -1.46127,4.4354 -1.4385,1.5696 -1.51111,1.5944 -4.66124,1.5944 -2.80365,0 -3.33711,-0.1288 -4.30721,-1.0401 -1.41898,-1.333 -0.80648,-2.0483 0.9682,-1.1305 3.62985,1.877 8.18089,-0.6377 8.18089,-4.5205 0,-2.6074 -1.3547,-4.8009 -3.65179,-5.9129 -1.77596,-0.8598 -2.15015,-0.9022 -3.74945,-0.4249 -0.97713,0.2915 -2.3876,0.8451 -3.13439,1.2302 -2.1847,1.1263 -7.02179,5.6377 -7.64564,7.1308 -1.54962,3.7087 -8.90443,8.4332 -16.6091,10.6691 -5.04391,1.4637 -13.03602,1.87 -17.60711,0.8949 -4.33067,-0.9236 -9.50961,-3.1273 -16.23133,-6.9065 l -5.76224,-3.2398 -3.27029,0.2853 c -5.51198,0.4809 -24.34609,-1.144 -32.4726,-2.8015 -4.71951,-0.9626 -13.78229,-3.4132 -16.86158,-4.5595 -1.74855,-0.6509 -2.15838,-1.0005 -2.26712,-1.9334 -0.11594,-0.9947 0.051,-1.1733 1.31938,-1.4112 1.54541,-0.29 4.79244,0.3916 5.22868,1.0975 0.37895,0.6131 4.0455,2.4067 7.37548,3.6079 8.5456,3.0826 23.7189,4.9723 33.5924,4.1836 l 4.26876,-0.3409 -2.98813,-1.7075 c -11.73583,-6.7062 -25.52771,-11.2325 -41.62038,-13.6592 -4.03234,-0.608 -4.06395,-0.6058 -5.57837,0.3955 -5.73058,3.7887 -15.65138,7.0739 -21.36196,7.0739 -2.68729,0 -1.91574,0.5916 1.86138,1.4272 4.07743,0.9021 9.5771,2.4078 15.04737,4.1197 2.11303,0.6613 7.16845,1.8946 11.23427,2.7408 8.10877,1.6874 9.75483,2.3132 10.14187,3.8552 0.60285,2.402 -0.93112,3.7729 -6.24308,5.5796 -1.69218,0.5756 -3.33096,1.2576 -3.64173,1.5154 -1.22507,1.0167 -4.45587,-1.1259 -4.43431,-2.9408 0.0157,-1.326 0.65931,-2.2875 2.01409,-3.0092 1.25024,-0.666 1.21122,-1.1437 -0.20032,-2.4519 -1.97495,-1.8303 -6.86297,-3.8533 -14.20674,-5.8799 -12.38722,-3.4183 -17.855157,-4.5291 -22.293212,-4.5291 -6.939161,0 -13.727705,-1.0613 -32.773753,-5.1233 -11.595232,-2.4729 -21.588466,-4.2681 -23.759756,-4.2681 l -1.116792,0 0.266682,3.0949 c 0.659851,7.6576 0.794386,15.5998 0.315935,18.6514 -0.802877,5.1208 -4.143499,16.6726 -4.821472,16.6726 -0.237364,0 -0.323584,-0.4323 -0.191599,-0.9604 z m 74.260618,-31.9421 c 5.85894,-0.8778 13.59174,-3.3601 15.17446,-4.8713 1.40573,-1.3421 -27.753232,-1.3761 -36.186313,-0.042 -4.908512,0.7765 -12.923744,2.4468 -12.719821,2.6507 0.18583,0.1858 10.869299,1.7308 15.457792,2.2354 4.958496,0.5453 14.719012,0.5599 18.273882,0.027 z m -33.427975,-3.3918 c 1.760864,-0.4556 2.553255,-0.7359 1.760864,-0.6228 -0.79239,0.1132 -3.577747,0.2292 -6.189689,0.2579 l -4.748999,0.052 2.774695,0.536 c 1.52608,0.2949 2.870739,0.5517 2.988128,0.5708 0.117388,0.019 1.654144,-0.3383 3.415001,-0.794 z m 3.201568,-2.7653 c 13.453415,-2.0985 23.836067,-6.4162 24.815797,-10.3197 0.41369,-1.6483 -0.63834,-3.4265 -2.877128,-4.86312 -2.036998,-1.30714 -2.632467,-2.11098 -1.555354,-2.09958 1.014362,0.0107 6.657182,3.40409 7.551692,4.5413 3.22943,4.1055 0.68929,7.203 -8.939039,10.9002 -2.466547,0.9471 -2.809555,1.1678 -1.494061,0.9614 2.607124,-0.4091 22.07617,-0.263 26.84065,0.2014 l 4.21624,0.4109 2.1869,-1.6527 c 5.99335,-4.5294 8.77477,-11.7243 6.35361,-16.43534 -1.25968,-2.45105 -4.03065,-5.44954 -6.50096,-7.03473 -6.37258,-4.08928 -21.40621,-6.18507 -33.365406,-4.65137 -4.16743,0.53446 -3.781613,0.13228 -4.453811,4.64265 -0.447757,3.00437 -2.037991,6.81521 -4.171283,9.99607 -1.075316,1.60336 -2.033005,3.13172 -2.128192,3.39632 -0.09519,0.2646 -0.337677,0.3268 -0.538861,0.1382 -0.201178,-0.1887 0.05485,-1.1491 0.568883,-2.13443 0.514067,-0.98529 1.230938,-3.23216 1.59303,-4.99303 0.362106,-1.76085 1.031597,-4.63495 1.487764,-6.38686 0.45616,-1.75191 0.75239,-3.26229 0.658284,-3.35639 -0.659328,-0.65934 -11.907468,3.00123 -17.505638,5.69698 -6.138223,2.95581 -9.508356,5.18501 -11.484271,7.59636 -0.883656,1.07839 -2.950703,3.06037 -4.593439,4.40427 -2.394014,1.9586 -3.065558,2.3225 -3.383648,1.8335 -0.218275,-0.3355 -0.298194,-1.0305 -0.177606,-1.5443 0.120588,-0.5139 0.0085,-1.0646 -0.249125,-1.2238 -0.624762,-0.3861 2.499536,-3.57714 5.891853,-6.01767 4.990946,-3.59062 11.483654,-13.09281 15.206694,-22.25526 1.271059,-3.1281 1.899289,-2.92295 -6.119527,-1.99837 -5.691562,0.65624 -7.424575,0.96964 -10.138303,1.83343 -0.86636,0.27577 -1.387346,0.28746 -1.387346,0.0311 0,-0.22576 0.336164,-0.52025 0.747034,-0.65441 0.41087,-0.13416 2.15146,-0.90801 3.867976,-1.71967 3.518034,-1.66349 8.23679,-2.70523 12.253846,-2.70523 l 2.706848,0 0.6315,-2.2411 c 3.683828,-13.07316 3.32706,-27.69426 -0.863628,-35.39394 -1.4317,-2.63051 -4.902957,-5.86784 -7.885517,-7.35411 -5.524926,-2.75319 -13.994386,-0.27564 -19.837998,5.80316 l -1.763368,1.83434 -0.253492,9.60471 c -0.228036,8.64031 -1.301411,19.28742 -2.216304,21.98411 -0.159302,0.46957 0.499188,-0.65159 1.463313,-2.49144 4.914944,-9.37928 8.816302,-12.00821 13.155545,-8.86487 1.825977,1.32273 5.338589,7.36566 4.66238,8.02094 -0.197079,0.19098 -0.668263,-0.133 -1.047081,-0.71995 -0.378819,-0.58696 -1.391739,-1.78755 -2.250936,-2.66798 -1.275572,-1.30709 -1.866466,-1.60078 -3.220803,-1.60078 -3.252234,0 -6.163342,3.08905 -9.856018,10.45846 -3.171537,6.32939 -5.823853,15.30774 -6.935745,23.47818 -0.50557,3.71504 -0.373179,15.37934 0.240519,21.19104 0.287237,2.7202 0.131628,2.6283 5.303163,3.1329 1.52608,0.149 4.044037,0.5618 5.595452,0.9176 6.610376,1.5156 20.70728,1.6946 29.194915,0.3706 z m 2.044384,-28.80305 c 2.397312,-0.69035 5.188045,-1.38596 6.201626,-1.5458 2.393389,-0.37744 2.914067,-0.95668 3.310656,-3.68299 0.341901,-2.35042 0.331417,-8.0083 -0.01549,-8.3552 -0.492467,-0.49247 -10.436128,-1.4707 -12.222624,-1.20244 l -1.962067,0.29464 -1.609716,4.06709 c -1.628838,4.11538 -4.911776,10.48818 -7.014067,13.61562 -0.631289,0.93913 -1.277504,1.91904 -1.436038,2.17757 -0.158522,0.25854 2.114137,-0.56119 5.050361,-1.82162 2.936231,-1.26043 7.300039,-2.85653 9.697357,-3.54687 z m -43.299221,-2.35176 c 0.236767,-1.87456 0.375566,-3.4632 0.308448,-3.53033 -0.06712,-0.0671 -0.539592,0.9691 -1.049939,2.30271 -0.795927,2.07989 -0.883731,2.88556 -0.617365,5.66472 l 0.310531,3.23997 0.308921,-2.13439 c 0.169906,-1.1739 0.502638,-3.66812 0.739404,-5.54268 z m 93.465234,3.47348 c -4.86622,-4.30239 -21.50678,-10.84992 -34.719037,-13.66084 l -4.706189,-1.00124 0.30432,3.02969 c 0.167373,1.66633 0.316192,4.15825 0.330708,5.53759 l 0.02637,2.5079 1.387347,-0.2786 c 2.947526,-0.59192 11.749993,-1.1032 15.026453,-0.87281 8.42135,0.59216 15.20099,2.09365 20.08408,4.44802 1.87824,0.90561 3.51104,1.65489 3.62844,1.66509 0.11739,0.0102 -0.49575,-0.60846 -1.36251,-1.3748 z M 36.831699,972.57618 c 2.363509,-8.10959 3.781714,-17.80237 4.417178,-30.18932 0.212687,-4.14589 0.237851,-7.94035 0.05592,-8.43214 -0.293344,-0.79299 -0.513378,-0.60871 -1.944551,1.62857 -6.472662,10.1184 -8.072447,21.84407 -5.908084,43.30354 l 0.274537,2.72201 1.029547,-2.72201 c 0.566255,-1.4971 1.500208,-4.3369 2.075448,-6.31065 z m 51.570733,-4.20184 c -1.769209,-13.57747 -4.79374,-24.30797 -9.544486,-33.86216 -2.136723,-4.29716 -4.322944,-7.61544 -5.42336,-8.23167 -0.44313,-0.24815 -0.309446,0.23488 0.413491,1.49406 3.078035,5.3612 4.384448,12.77959 4.029978,22.88397 -0.196512,5.60172 -0.454426,7.57413 -1.545562,11.81974 -0.720326,2.80281 -1.244525,5.16117 -1.164883,5.24081 0.07965,0.0796 2.812902,0.52987 6.073914,1.00049 3.261011,0.47061 6.121203,0.93047 6.35598,1.02191 0.906759,0.35311 1.006919,0.18299 0.804928,-1.36715 z m 6.451962,70.52586 c -0.704339,-0.3225 -2.625286,-0.6017 -4.268755,-0.6206 -4.205594,-0.048 -9.065863,-0.9975 -11.550099,-2.2563 -1.163732,-0.5897 -3.555232,-2.3691 -5.314464,-3.9543 -4.967604,-4.4759 -6.857146,-5.8715 -10.551171,-7.7934 -3.302246,-1.718 -9.280655,-3.493 -11.785682,-3.4992 -1.440485,-0.01 -1.358888,-0.9968 0.09946,-1.2106 0.526618,-0.077 4.545546,0.925 8.930954,2.2273 4.385406,1.3023 10.086507,2.8612 12.669105,3.4643 2.582592,0.603 7.105914,1.8514 10.051814,2.7742 9.8229,3.0768 11.505408,4.2032 11.505408,7.703 0,1.8721 0.09979,2.0651 1.280621,2.4767 0.704352,0.2456 1.280634,0.6486 1.280634,0.8956 0,0.5859 -0.763475,0.5187 -2.347821,-0.2067 z M 27.916178,1000.534 c -0.326513,-3.49656 -1.944701,-8.34948 -3.869325,-11.60404 -0.81967,-1.38606 -3.609248,-4.79526 -6.19906,-7.576 -6.085001,-6.53358 -6.58197,-7.68413 -6.66665,-15.43417 -0.03526,-3.22745 -0.276675,-6.06964 -0.576969,-6.7928 -0.333121,-0.80221 -0.369593,-1.39016 -0.102792,-1.65696 0.266797,-0.2668 0.630064,0.10468 1.023755,1.04692 0.571829,1.36858 0.717885,1.45019 2.321709,1.29724 2.300958,-0.21943 4.106812,0.78601 5.411848,3.01314 1.30023,2.21891 3.744789,10.64272 5.17122,17.81969 0.583287,2.93477 1.935655,8.56309 3.005257,12.50736 1.873454,6.90862 2.207241,9.66532 1.209859,9.99202 -0.293845,0.096 -0.56751,-0.8846 -0.728852,-2.6124 z"
       id="path3168"
       inkscape:connector-curvature="0" />
    <path
       inkscape:connector-curvature="0"
       id="path3172"
       d="m 479.1086,548.45371 c -1.62177,6.491 -2.62078,19.9728 -2.23647,30.1815 0.15425,4.0976 0.37624,7.546 0.4933,7.663 0.97704,0.9771 25.75566,1.7071 31.90376,0.94 1.36383,-0.1702 2.57227,-0.1596 2.68543,0.024 0.26088,0.4221 -0.37496,0.5684 -8.08045,1.859 -7.39254,1.2381 -13.42072,1.3586 -20.95627,0.4186 -2.79899,-0.3491 -5.16485,-0.559 -5.25746,-0.4664 -0.33298,0.333 0.78991,8.7661 2.47797,18.60993 2.82785,16.49047 3.07364,18.72641 3.19087,29.02756 0.11835,10.40036 0.40118,12.49779 3.33856,24.75881 1.76115,7.35128 2.84915,10.40343 4.54118,12.73919 1.92005,2.65057 2.68562,2.89482 4.25745,1.3583 2.43642,-2.38168 4.96828,-2.13459 6.27838,0.61272 0.64119,1.34459 0.64673,1.56732 0.0559,2.24878 -0.36066,0.416 -1.37946,2.15089 -2.26402,3.85531 -2.66126,5.12794 -5.69251,6.9538 -7.78877,4.69154 -1.10011,-1.18724 -1.51211,-2.77286 -2.6897,-10.35174 -0.51073,-3.28695 -1.39011,-7.56979 -1.95419,-9.51742 -1.2796,-4.41819 -2.89037,-11.28251 -3.60156,-15.34811 -0.29775,-1.70217 -0.7027,-3.09485 -0.89988,-3.09485 -0.19718,0 -0.35851,0.34801 -0.35851,0.77336 0,1.6989 -1.86225,7.74553 -3.39287,11.01646 -1.64679,3.51917 -4.24715,7.64735 -6.59675,10.47259 -1.47891,1.7783 -1.49176,2.07481 -0.44121,10.18017 1.83544,14.16102 5.99019,26.8386 11.87735,36.24197 1.625,2.59556 1.6325,2.58895 2.37808,-2.0919 1.18081,-7.41333 0.89938,-19.65589 -0.61763,-26.86751 -0.88238,-4.19468 -2.91579,-9.48289 -4.5537,-11.84266 -1.12576,-1.62189 -1.42746,-2.48176 -1.42768,-4.0689 -3.3e-4,-2.34385 0.89724,-3.5704 2.28943,-3.12854 0.65235,0.20705 1.1214,1.05689 1.752,3.17431 2.22536,7.47235 3.59423,14.17762 4.26694,20.90113 0.57853,5.78227 0.56636,20.23139 -0.0216,25.63591 l -0.46389,4.2641 2.94154,5.25063 c 3.75131,6.69607 5.46785,10.51953 6.28603,14.00159 1.23323,5.24844 0.6768,11.82064 -1.50276,17.74964 -2.43736,6.6304 -8.64801,14.529 -13.10568,16.6676 -6.10583,2.9293 -12.0511,9.1639 -12.04542,12.6316 0.005,3.1127 3.88292,5.7007 8.02691,5.357 2.10575,-0.1746 2.53101,-0.385 4.03354,-1.9958 1.774,-1.9018 1.8823,-2.6634 0.94643,-6.6553 l -0.30024,-1.2806 1.3426,1.3018 c 1.8345,1.7788 2.12836,3.8235 0.91092,6.3384 -1.35002,2.7887 -3.01042,3.6721 -6.9015,3.6717 -2.5895,-3e-4 -3.61691,-0.2207 -5.76398,-1.2364 -3.20529,-1.5164 -4.00378,-2.575 -4.00378,-5.3084 0,-3.1328 2.05367,-6.6831 5.43158,-9.39 2.70552,-2.1681 2.86095,-2.8257 0.67148,-2.8409 -1.89909,-0.013 -6.03751,-2.3929 -7.17178,-4.1241 -0.73112,-1.1158 -0.50927,-2.7124 0.37689,-2.7124 0.2922,0 0.95117,0.5679 1.46438,1.2621 1.33206,1.8017 4.51128,3.5499 6.45565,3.5499 4.57848,0 11.15962,-5.5004 14.44015,-12.0689 4.745,-9.5008 4.34562,-17.3435 -1.50788,-29.61067 -2.36725,-4.96107 -2.43033,-5.04451 -3.06549,-4.05533 -1.11825,1.74155 -5.24544,5.91904 -5.84775,5.91904 -0.81709,0 -0.75112,-0.18021 0.91484,-2.49912 0.8196,-1.14082 1.95988,-3.32209 2.53395,-4.84726 l 1.04377,-2.77303 -2.91419,-5.81937 c -4.58523,-9.15629 -7.74881,-18.73931 -9.39414,-28.45631 -0.68073,-4.02031 -2.14833,-15.46877 -2.15032,-16.77427 -2.8e-4,-0.18674 -1.2011,0.63566 -2.66849,1.82755 -1.46738,1.19191 -3.66148,2.63987 -4.87576,3.21771 -5.21725,2.4827 -11.51987,3.12435 -15.33187,1.56089 -1.15314,-0.47296 -2.59313,-0.96758 -3.19997,-1.09915 -0.60684,-0.13158 -2.11369,-1.24957 -3.34855,-2.48443 -7.9398,-7.9398 -14.78722,-25.44327 -17.14462,-43.82526 -0.43845,-3.41889 -0.61342,-3.93083 -1.40467,-4.10992 -0.49712,-0.11251 -2.72874,-0.59689 -4.95917,-1.07639 -15.42713,-3.31654 -29.0403,-8.95683 -37.39438,-15.49345 -2.96939,-2.32339 -3.55114,-3.14801 -5.3117,-7.52929 -2.02619,-5.04236 0.0199,-11.99441 4.9456,-16.80361 1.36197,-1.3297 2.39532,-2.49 2.29633,-2.5784 -0.099,-0.088 -1.81277,-0.3883 -3.80842,-0.6665 -15.69273,-2.1878 -28.86909,-6.1136 -41.79412,-12.4523 l -6.61413,-3.2437 -2.91066,0.7488 c -1.60086,0.4117 -3.88726,1.2593 -5.08088,1.8834 -1.19362,0.6241 -2.29448,1.0074 -2.44636,0.8517 -0.43848,-0.4496 3.37531,-3.6493 5.48669,-4.6031 l 1.92094,-0.8679 -4.90907,-2.3193 c -2.69998,-1.2757 -6.92606,-3.0124 -9.39126,-3.8593 -4.29986,-1.4774 -4.72532,-1.5406 -10.45846,-1.5541 -5.15181,-0.012 -6.38849,0.1236 -8.96439,0.9841 -6.79012,2.2681 -12.05663,5.9207 -13.83555,9.5954 -1.56317,3.2291 -1.03212,5.3117 2.06883,8.1132 1.90406,1.7202 2.09164,2.1954 1.02775,2.6037 -2.02805,0.7782 -6.12262,-4.4355 -6.12262,-7.7962 l 0,-1.4722 -2.34669,2.2194 c -3.2031,3.0295 -6.47656,4.506 -9.93044,4.4794 -2.3091,-0.018 -2.8366,-0.1778 -3.87999,-1.1775 -2.04535,-1.9595 -3.05226,-4.4969 -3.05226,-7.6916 0,-2.6394 0.1036,-2.9539 1.46127,-4.4354 1.4385,-1.5696 1.51111,-1.5944 4.66124,-1.5944 2.80365,0 3.33711,0.1288 4.30721,1.0401 1.41898,1.333 0.80648,2.0483 -0.9682,1.1305 -3.62985,-1.877 -8.18089,0.6377 -8.18089,4.5205 0,2.6074 1.3547,4.8009 3.65179,5.9129 1.77596,0.8598 2.15015,0.9022 3.74945,0.4249 0.97713,-0.2915 2.3876,-0.8451 3.13439,-1.2302 2.1847,-1.1263 7.02179,-5.6377 7.64564,-7.1308 1.54962,-3.7087 8.90443,-8.4332 16.6091,-10.6691 5.04391,-1.4637 13.03602,-1.87 17.60711,-0.8949 4.33067,0.9236 9.50961,3.1273 16.23133,6.9065 l 5.76224,3.2398 3.27029,-0.2853 c 5.51198,-0.4809 24.34609,1.144 32.4726,2.8015 4.71951,0.9626 13.78229,3.4132 16.86158,4.5595 1.74855,0.6509 2.15838,1.0005 2.26712,1.9334 0.11594,0.9947 -0.051,1.1733 -1.31938,1.4112 -1.54541,0.29 -4.79244,-0.3916 -5.22868,-1.0975 -0.37895,-0.6131 -4.0455,-2.4067 -7.37548,-3.6079 -8.5456,-3.0826 -23.7189,-4.9723 -33.5924,-4.1836 l -4.26876,0.3409 2.98813,1.7075 c 11.73583,6.7062 25.52771,11.2325 41.62038,13.6592 4.03234,0.608 4.06395,0.6058 5.57837,-0.3955 5.73058,-3.7887 15.65138,-7.0739 21.36196,-7.0739 2.68729,0 1.91574,-0.5916 -1.86138,-1.4272 -4.07743,-0.9021 -9.5771,-2.4078 -15.04737,-4.1197 -2.11303,-0.6613 -7.16845,-1.8946 -11.23427,-2.7408 -8.10877,-1.6874 -9.75483,-2.3132 -10.14187,-3.8552 -0.60285,-2.402 0.93112,-3.7729 6.24308,-5.5796 1.69218,-0.5756 3.33096,-1.2576 3.64173,-1.5154 1.22507,-1.0167 4.45587,1.1259 4.43431,2.9408 -0.0157,1.326 -0.65931,2.2875 -2.01409,3.0092 -1.25024,0.666 -1.21122,1.1437 0.20032,2.4519 1.97495,1.8303 6.86297,3.8533 14.20674,5.8799 12.38722,3.4183 17.85516,4.5291 22.29321,4.5291 6.93916,0 13.72771,1.0613 32.77375,5.1233 11.59524,2.4729 21.58847,4.2681 23.75976,4.2681 l 1.11679,0 -0.26668,-3.0949 c -0.65985,-7.6576 -0.79439,-15.5998 -0.31593,-18.6514 0.80287,-5.1208 4.14349,-16.6726 4.82147,-16.6726 0.23736,0 0.32358,0.4323 0.1916,0.9604 z m -74.26062,31.9421 c -5.85894,0.8778 -13.59174,3.3601 -15.17446,4.8713 -1.40573,1.3421 27.75323,1.3761 36.18631,0.042 4.90851,-0.7765 12.92375,-2.4468 12.71982,-2.6507 -0.18583,-0.1858 -10.8693,-1.7308 -15.45779,-2.2354 -4.95849,-0.5453 -14.71901,-0.5599 -18.27388,-0.027 z m 33.42797,3.3918 c -1.76086,0.4556 -2.55325,0.7359 -1.76086,0.6228 0.79239,-0.1132 3.57775,-0.2292 6.18969,-0.2579 l 4.749,-0.052 -2.7747,-0.536 c -1.52608,-0.2949 -2.87074,-0.5517 -2.98812,-0.5708 -0.11739,-0.019 -1.65415,0.3383 -3.41501,0.794 z m -3.20156,2.7653 c -13.45342,2.0985 -23.83607,6.4162 -24.8158,10.3197 -0.41369,1.6483 0.63834,3.4265 2.87713,4.86312 2.037,1.30714 2.63246,2.11098 1.55535,2.09958 -1.01436,-0.0107 -6.65718,-3.40409 -7.55169,-4.5413 -3.22943,-4.1055 -0.68929,-7.203 8.93904,-10.9002 2.46655,-0.9471 2.80955,-1.1678 1.49406,-0.9614 -2.60712,0.4091 -22.07617,0.263 -26.84065,-0.2014 l -4.21624,-0.4109 -2.1869,1.6527 c -5.99335,4.5294 -8.77477,11.7243 -6.35361,16.43534 1.25968,2.45105 4.03065,5.44954 6.50096,7.03473 6.37258,4.08928 21.40621,6.18507 33.36541,4.65137 4.16743,-0.53446 3.78161,-0.13228 4.45381,-4.64265 0.44775,-3.00437 2.03799,-6.81521 4.17128,-9.99607 1.07532,-1.60336 2.033,-3.13172 2.12819,-3.39632 0.0952,-0.2646 0.33768,-0.3268 0.53886,-0.1382 0.20118,0.1887 -0.0548,1.1491 -0.56888,2.13443 -0.51407,0.98529 -1.23094,3.23216 -1.59303,4.99303 -0.36211,1.76085 -1.0316,4.63495 -1.48776,6.38686 -0.45616,1.75191 -0.75239,3.26229 -0.65829,3.35639 0.65933,0.65934 11.90747,-3.00123 17.50564,-5.69698 6.13822,-2.95581 9.50836,-5.18501 11.48427,-7.59636 0.88366,-1.07839 2.9507,-3.06037 4.59344,-4.40427 2.39401,-1.9586 3.06556,-2.3225 3.38365,-1.8335 0.21827,0.3355 0.29819,1.0305 0.1776,1.5443 -0.12058,0.5139 -0.008,1.0646 0.24913,1.2238 0.62476,0.3861 -2.49954,3.57714 -5.89185,6.01767 -4.99095,3.59062 -11.48366,13.09281 -15.2067,22.25526 -1.27106,3.1281 -1.89929,2.92295 6.11953,1.99837 5.69156,-0.65624 7.42457,-0.96964 10.1383,-1.83343 0.86636,-0.27577 1.38735,-0.28746 1.38735,-0.0311 0,0.22576 -0.33617,0.52025 -0.74704,0.65441 -0.41087,0.13416 -2.15146,0.90801 -3.86797,1.71967 -3.51804,1.66349 -8.23679,2.70523 -12.25385,2.70523 l -2.70685,0 -0.6315,2.2411 c -3.68382,13.07316 -3.32706,27.69426 0.86363,35.39394 1.4317,2.63051 4.90296,5.86784 7.88552,7.35411 5.52492,2.75319 13.99438,0.27564 19.838,-5.80316 l 1.76336,-1.83434 0.2535,-9.60471 c 0.22803,-8.64031 1.30141,-19.28742 2.2163,-21.98411 0.1593,-0.46957 -0.49919,0.65159 -1.46331,2.49144 -4.91495,9.37928 -8.8163,12.00821 -13.15555,8.86487 -1.82597,-1.32273 -5.33859,-7.36566 -4.66238,-8.02094 0.19708,-0.19098 0.66827,0.133 1.04708,0.71995 0.37882,0.58696 1.39174,1.78755 2.25094,2.66798 1.27557,1.30709 1.86647,1.60078 3.2208,1.60078 3.25224,0 6.16334,-3.08905 9.85602,-10.45846 3.17154,-6.32939 5.82385,-15.30774 6.93575,-23.47818 0.50557,-3.71504 0.37317,-15.37934 -0.24052,-21.19104 -0.28724,-2.7202 -0.13163,-2.6283 -5.30317,-3.1329 -1.52608,-0.149 -4.04403,-0.5618 -5.59545,-0.9176 -6.61037,-1.5156 -20.70728,-1.6946 -29.19491,-0.3706 z M 433.03,615.35596 c -2.39731,0.69035 -5.18804,1.38596 -6.20162,1.5458 -2.39339,0.37744 -2.91407,0.95668 -3.31066,3.68299 -0.3419,2.35042 -0.33142,8.0083 0.0155,8.3552 0.49247,0.49247 10.43613,1.4707 12.22262,1.20244 l 1.96207,-0.29464 1.60972,-4.06709 c 1.62884,-4.11538 4.91177,-10.48818 7.01406,-13.61562 0.63129,-0.93913 1.27751,-1.91904 1.43604,-2.17757 0.15852,-0.25854 -2.11413,0.56119 -5.05036,1.82162 -2.93623,1.26043 -7.30004,2.85653 -9.69736,3.54687 z m 43.29922,2.35176 c -0.23676,1.87456 -0.37556,3.4632 -0.30844,3.53033 0.0671,0.0671 0.53959,-0.9691 1.04993,-2.30271 0.79593,-2.07989 0.88374,-2.88556 0.61737,-5.66472 l -0.31053,-3.23997 -0.30892,2.13439 c -0.16991,1.1739 -0.50264,3.66812 -0.73941,5.54268 z m -93.46523,-3.47348 c 4.86622,4.30239 21.50678,10.84992 34.71904,13.66084 l 4.70619,1.00124 -0.30432,-3.02969 c -0.16738,-1.66633 -0.3162,-4.15825 -0.33071,-5.53759 l -0.0264,-2.5079 -1.38735,0.2786 c -2.94753,0.59192 -11.74999,1.1032 -15.02645,0.87281 -8.42135,-0.59216 -15.20099,-2.09365 -20.08408,-4.44802 -1.87824,-0.90561 -3.51104,-1.65489 -3.62844,-1.66509 -0.11739,-0.0102 0.49575,0.60846 1.36251,1.3748 z m 92.30431,13.04509 c -2.36351,8.10959 -3.78171,17.80237 -4.41718,30.18932 -0.21268,4.14589 -0.23785,7.94035 -0.0559,8.43214 0.29335,0.79299 0.51338,0.60871 1.94455,-1.62857 6.47267,-10.1184 8.07245,-21.84407 5.90809,-43.30354 l -0.27454,-2.72201 -1.02955,2.72201 c -0.56625,1.4971 -1.5002,4.3369 -2.07544,6.31065 z m -51.57073,4.20184 c 1.76921,13.57747 4.79374,24.30797 9.54448,33.86216 2.13673,4.29716 4.32295,7.61544 5.42336,8.23167 0.44313,0.24815 0.30945,-0.23488 -0.41349,-1.49406 -3.07803,-5.3612 -4.38445,-12.77959 -4.02998,-22.88397 0.19652,-5.60172 0.45443,-7.57413 1.54557,-11.81974 0.72032,-2.80281 1.24452,-5.16117 1.16488,-5.24081 -0.0797,-0.0796 -2.8129,-0.52987 -6.07391,-1.00049 -3.26102,-0.47061 -6.12121,-0.93047 -6.35598,-1.02191 -0.90676,-0.35311 -1.00692,-0.18299 -0.80493,1.36715 z m -6.45196,-70.52586 c 0.70433,0.3225 2.62528,0.6017 4.26875,0.6206 4.20559,0.048 9.06586,0.9975 11.5501,2.2563 1.16373,0.5897 3.55523,2.3691 5.31446,3.9543 4.96761,4.4759 6.85715,5.8715 10.55117,7.7934 3.30225,1.718 9.28066,3.493 11.78569,3.4992 1.44048,0.01 1.35888,0.9968 -0.0995,1.2106 -0.52662,0.077 -4.54555,-0.925 -8.93096,-2.2273 -4.3854,-1.3023 -10.0865,-2.8612 -12.6691,-3.4643 -2.58259,-0.603 -7.10592,-1.8514 -10.05182,-2.7742 -9.8229,-3.0768 -11.5054,-4.2032 -11.5054,-7.703 0,-1.8721 -0.0998,-2.0651 -1.28063,-2.4767 -0.70435,-0.2456 -1.28063,-0.6486 -1.28063,-0.8956 0,-0.5859 0.76348,-0.5187 2.34782,0.2067 z m 66.93821,38.3662 c 0.32651,3.49656 1.9447,8.34948 3.86933,11.60404 0.81967,1.38606 3.60924,4.79526 6.19906,7.576 6.085,6.53358 6.58197,7.68413 6.66665,15.43417 0.0353,3.22745 0.27667,6.06964 0.57697,6.7928 0.33312,0.80221 0.36959,1.39016 0.10279,1.65696 -0.2668,0.2668 -0.63007,-0.10468 -1.02376,-1.04692 -0.57183,-1.36858 -0.71788,-1.45019 -2.32171,-1.29724 -2.30095,0.21943 -4.10681,-0.78601 -5.41184,-3.01314 -1.30023,-2.21891 -3.74479,-10.64272 -5.17122,-17.81969 -0.58329,-2.93477 -1.93566,-8.56309 -3.00526,-12.50736 -1.87346,-6.90862 -2.20724,-9.66532 -1.20986,-9.99202 0.29384,-0.096 0.56751,0.8846 0.72885,2.6124 z"
       style="fill:#008000" />
    <path
       inkscape:connector-curvature="0"
       id="path3174"
       d="m 4.5259561,576.81916 c 6.4909999,1.62176 19.9727999,2.62078 30.1814999,2.23647 4.0976,-0.15426 7.546,-0.37624 7.663,-0.4933 0.9771,-0.97705 1.7071,-25.75567 0.94,-31.90377 -0.1702,-1.36382 -0.1596,-2.57226 0.024,-2.68542 0.4221,-0.26088 0.5684,0.37495 1.859,8.08045 1.2381,7.39253 1.3586,13.42072 0.4186,20.95626 -0.3491,2.79899 -0.559,5.16485 -0.4664,5.25746 0.333,0.33298 8.7661,-0.78991 18.60993,-2.47796 16.49047,-2.82785 18.72641,-3.07364 29.02756,-3.19087 10.400364,-0.11836 12.497794,-0.40119 24.758814,-3.33856 7.35128,-1.76116 10.40343,-2.84916 12.73919,-4.54118 2.65057,-1.92006 2.89482,-2.68563 1.3583,-4.25745 -2.38168,-2.43643 -2.13459,-4.96829 0.61272,-6.27839 1.34459,-0.64119 1.56732,-0.64673 2.24878,-0.0559 0.416,0.36066 2.15089,1.37947 3.85531,2.26402 5.12794,2.66127 6.9538,5.69251 4.69154,7.78877 -1.18724,1.10012 -2.77286,1.51211 -10.35174,2.68971 -3.28695,0.51072 -7.56979,1.3901 -9.51742,1.95418 -4.41819,1.2796 -11.28251,2.89037 -15.34811,3.60156 -1.70217,0.29775 -3.09485,0.7027 -3.09485,0.89988 0,0.19718 0.34801,0.35851 0.77336,0.35851 1.6989,0 7.74553,1.86226 11.01646,3.39288 3.51917,1.64678 7.64735,4.24714 10.47259,6.59675 1.7783,1.4789 2.07481,1.49176 10.18017,0.4412 14.16102,-1.83544 26.8386,-5.99018 36.24197,-11.87735 2.59556,-1.625 2.58895,-1.6325 -2.0919,-2.37807 -7.41333,-1.18081 -19.65589,-0.89938 -26.86751,0.61763 -4.19468,0.88237 -9.48289,2.91578 -11.84266,4.55369 -1.62189,1.12576 -2.48176,1.42747 -4.0689,1.42768 -2.34385,3.3e-4 -3.5704,-0.89724 -3.12854,-2.28943 0.20705,-0.65235 1.05689,-1.1214 3.17431,-1.75199 7.47235,-2.22536 14.17762,-3.59423 20.90113,-4.26694 5.78227,-0.57854 20.23139,-0.56637 25.63591,0.0216 l 4.2641,0.46388 5.25063,-2.94153 c 6.69607,-3.75132 10.51953,-5.46785 14.00159,-6.28603 5.24845,-1.23323 11.82061,-0.6768 17.74966,1.50275 6.63037,2.43737 14.52896,8.64802 16.66755,13.10568 2.92932,6.10583 9.16394,12.0511 12.63167,12.04542 3.11268,-0.005 5.70065,-3.88292 5.357,-8.02691 -0.17463,-2.10575 -0.38505,-2.53101 -1.99584,-4.03354 -1.90183,-1.774 -2.6634,-1.8823 -6.65525,-0.94643 l -1.28063,0.30024 1.30179,-1.3426 c 1.77875,-1.8345 3.82348,-2.12835 6.33839,-0.91091 2.78875,1.35001 3.67211,3.01042 3.6717,6.9015 -2.9e-4,2.58949 -0.22066,3.61691 -1.23641,5.76397 -1.51636,3.2053 -2.57502,4.00378 -5.30834,4.00378 -3.1328,0 -6.68316,-2.05367 -9.39005,-5.43158 -2.16806,-2.70552 -2.82565,-2.86095 -2.84087,-0.67148 -0.0132,1.89909 -2.39297,6.03751 -4.12412,7.17179 -1.11581,0.73111 -2.71243,0.50926 -2.71243,-0.3769 0,-0.2922 0.56794,-0.95117 1.26208,-1.46437 1.80171,-1.33207 3.54998,-4.51129 3.54998,-6.45566 0,-4.57847 -5.50047,-11.15962 -12.06896,-14.44015 -9.50073,-4.74499 -17.34345,-4.34562 -29.61065,1.50788 -4.96107,2.36725 -5.04451,2.43033 -4.05533,3.06549 1.74155,1.11826 5.91904,5.24545 5.91904,5.84776 0,0.81709 -0.18021,0.75111 -2.49912,-0.91485 -1.14082,-0.8196 -3.32209,-1.95988 -4.84726,-2.53395 l -2.77303,-1.04376 -5.81937,2.91418 c -9.15629,4.58523 -18.73931,7.74882 -28.45631,9.39414 -4.02031,0.68073 -15.46877,2.14833 -16.77427,2.15032 -0.18674,2.8e-4 0.63566,1.2011 1.82755,2.66849 1.19191,1.46739 2.63987,3.66148 3.21771,4.87577 2.4827,5.21724 3.12435,11.51987 1.56089,15.33186 -0.47296,1.15315 -0.96758,2.59313 -1.09915,3.19997 -0.13158,0.60685 -1.24957,2.11369 -2.48443,3.34855 -7.9398,7.9398 -25.44327,14.78722 -43.825264,17.14462 -3.41889,0.43846 -3.93083,0.61342 -4.10992,1.40468 -0.11251,0.49711 -0.59689,2.72873 -1.07639,4.95916 -3.31654,15.42713 -8.95683,29.0403 -15.49345,37.39438 -2.32339,2.96939 -3.14801,3.55114 -7.52929,5.3117 -5.04236,2.02619 -11.99441,-0.0199 -16.80361,-4.9456 -1.3297,-1.36197 -2.49,-2.39532 -2.5784,-2.29633 -0.088,0.099 -0.3883,1.81277 -0.6665,3.80842 -2.1878,15.69273 -6.1136,28.86909 -12.4523,41.79412 l -3.2437,6.61413 0.7488,2.91066 c 0.4117,1.60086 1.2593,3.88726 1.8834,5.08088 0.6241,1.19362 1.0074,2.29448 0.8517,2.44636 -0.4496,0.43848 -3.6493,-3.37531 -4.6031,-5.48669 l -0.8679,-1.92094 -2.3193,4.90907 c -1.2757,2.69998 -3.0124,6.92606 -3.8593,9.39126 -1.4774,4.29986 -1.5406,4.72532 -1.5541,10.45846 -0.012,5.15181 0.1236,6.38849 0.9841,8.96439 2.2681,6.79012 5.9207,12.05663 9.5954,13.83555 3.2291,1.56317 5.3117,1.03212 8.1132,-2.06883 1.7202,-1.90406 2.1954,-2.09164 2.6037,-1.02775 0.7782,2.02805 -4.4355,6.12262 -7.7962,6.12262 l -1.4722,0 2.2194,2.34669 c 3.0295,3.2031 4.506,6.47656 4.4794,9.93044 -0.018,2.3091 -0.1778,2.8366 -1.1775,3.87999 -1.9595,2.04538 -4.4969,3.05229 -7.6916,3.05229 -2.6394,0 -2.9539,-0.1036 -4.4354,-1.46127 -1.5696,-1.4385 -1.5944,-1.51111 -1.5944,-4.66124 0,-2.80365 0.1288,-3.33711 1.0401,-4.30721 1.333,-1.41898 2.0483,-0.80648 1.1305,0.9682 -1.877,3.62985 0.6377,8.18089 4.5205,8.18089 2.6074,0 4.8009,-1.3547 5.9129,-3.65179 0.8598,-1.77596 0.9022,-2.15015 0.4249,-3.74945 -0.2915,-0.97713 -0.8451,-2.3876 -1.2302,-3.13439 -1.1263,-2.1847 -5.6377,-7.02179 -7.1308,-7.64564 -3.7087,-1.54962 -8.4332,-8.90443 -10.6691,-16.6091 -1.4637,-5.04391 -1.87,-13.03602 -0.8949,-17.60711 0.9236,-4.33067 3.1273,-9.50961 6.9065,-16.23133 l 3.2398,-5.76224 -0.2853,-3.27029 c -0.4809,-5.51198 1.144,-24.34609 2.8015,-32.4726 0.9626,-4.71951 3.4132,-13.78229 4.5595,-16.86158 0.6509,-1.74855 1.0005,-2.15838 1.9334,-2.26712 0.9947,-0.11594 1.1733,0.051 1.4112,1.31938 0.29,1.54541 -0.3916,4.79244 -1.0975,5.22868 -0.6131,0.37895 -2.4067,4.0455 -3.6079,7.37548 -3.0826,8.5456 -4.9723,23.7189 -4.1836,33.5924 l 0.3409,4.26876 1.7075,-2.98813 c 6.7062,-11.73583 11.2325,-25.52771 13.6592,-41.62038 0.608,-4.03234 0.6058,-4.06395 -0.3955,-5.57837 -3.7887,-5.73058 -7.0739,-15.65138 -7.0739,-21.36196 0,-2.68729 -0.5916,-1.91574 -1.4272,1.86138 -0.9021,4.07743 -2.4078,9.5771 -4.1197,15.04737 -0.6613,2.11303 -1.8946,7.16845 -2.7408,11.23427 -1.6874,8.10877 -2.3132,9.75483 -3.8552,10.14187 -2.402,0.60285 -3.7729,-0.93112 -5.5796,-6.24308 -0.5756,-1.69218 -1.2576,-3.33096 -1.5154,-3.64173 -1.0167,-1.22507 1.1259,-4.45587 2.9408,-4.43431 1.326,0.0157 2.2875,0.65931 3.0092,2.01409 0.666,1.25024 1.1437,1.21122 2.4519,-0.20032 1.8303,-1.97495 3.8533,-6.86297 5.8799,-14.20674 3.4183,-12.38722 4.5291,-17.85515 4.5291,-22.29321 0,-6.93916 1.0613,-13.7277 5.1233,-32.77375 2.4729,-11.59523 4.2681,-21.58847 4.2681,-23.75976 l 0,-1.11679 -3.0949,0.26668 c -7.6576,0.65985 -15.5998,0.79439 -18.6514,0.31594 -5.1208,-0.80288 -16.6725999,-4.1435 -16.6725999,-4.82147 0,-0.23737 0.4323,-0.32359 0.9604,-0.1916 z m 31.9420999,74.26061 c 0.8778,5.85894 3.3601,13.59174 4.8713,15.17446 1.3421,1.40573 1.3761,-27.75323 0.042,-36.18631 -0.7765,-4.90851 -2.4468,-12.92374 -2.6507,-12.71982 -0.1858,0.18583 -1.7308,10.8693 -2.2354,15.45779 -0.5453,4.9585 -0.5599,14.71901 -0.027,18.27388 z m 3.3918,-33.42797 c 0.4556,1.76086 0.7359,2.55325 0.6228,1.76086 -0.1132,-0.79239 -0.2292,-3.57774 -0.2579,-6.18969 l -0.052,-4.749 -0.536,2.7747 c -0.2949,1.52608 -0.5517,2.87074 -0.5708,2.98813 -0.019,0.11739 0.3383,1.65414 0.794,3.415 z m 2.7653,3.20157 c 2.0985,13.45341 6.4162,23.83606 10.3197,24.81579 1.6483,0.41369 3.4265,-0.63834 4.86312,-2.87712 1.30714,-2.037 2.11098,-2.63247 2.09958,-1.55536 -0.0107,1.01436 -3.40409,6.65718 -4.5413,7.55169 -4.1055,3.22943 -7.203,0.68929 -10.9002,-8.93904 -0.9471,-2.46654 -1.1678,-2.80955 -0.9614,-1.49406 0.4091,2.60713 0.263,22.07617 -0.2014,26.84065 l -0.4109,4.21624 1.6527,2.1869 c 4.5294,5.99335 11.7243,8.77477 16.43534,6.35361 2.45105,-1.25968 5.44954,-4.03065 7.03473,-6.50096 4.08928,-6.37258 6.18507,-21.40621 4.65137,-33.3654 -0.53446,-4.16743 -0.13228,-3.78162 -4.64265,-4.45381 -3.00437,-0.44776 -6.81521,-2.03799 -9.99607,-4.17129 -1.60336,-1.07531 -3.13172,-2.033 -3.39632,-2.12819 -0.2646,-0.0952 -0.3268,-0.33768 -0.1382,-0.53886 0.1887,-0.20118 1.1491,0.0548 2.13443,0.56888 0.98529,0.51407 3.23216,1.23094 4.99303,1.59303 1.76085,0.36211 4.63495,1.0316 6.38686,1.48777 1.75191,0.45616 3.26229,0.75239 3.35639,0.65828 0.65934,-0.65933 -3.00123,-11.90747 -5.69698,-17.50564 -2.95581,-6.13822 -5.18501,-9.50835 -7.59636,-11.48427 -1.07839,-0.88365 -3.06037,-2.9507 -4.40427,-4.59344 -1.9586,-2.39401 -2.3225,-3.06555 -1.8335,-3.38364 0.3355,-0.21828 1.0305,-0.2982 1.5443,-0.17761 0.5139,0.12059 1.0646,0.008 1.2238,-0.24913 0.3861,-0.62476 3.57714,2.49954 6.01767,5.89186 3.59062,4.99094 13.09281,11.48365 22.25526,15.20669 3.1281,1.27106 2.92295,1.89929 1.99837,-6.11953 -0.65624,-5.69156 -0.96964,-7.42457 -1.83343,-10.1383 -0.27577,-0.86636 -0.28746,-1.38734 -0.0311,-1.38734 0.22576,0 0.52025,0.33616 0.65441,0.74703 0.13416,0.41087 0.90801,2.15146 1.71967,3.86798 1.66349,3.51803 2.70523,8.23679 2.70523,12.25384 l 0,2.70685 2.2411,0.6315 c 13.073164,3.68383 27.694264,3.32706 35.393944,-0.86363 2.63051,-1.4317 5.86784,-4.90296 7.35411,-7.88552 2.75319,-5.52492 0.27564,-13.99438 -5.80316,-19.83799 l -1.83434,-1.76337 -9.60471,-0.25349 c -8.64031,-0.22804 -19.287424,-1.30141 -21.984114,-2.21631 -0.46957,-0.1593 0.65159,0.49919 2.49144,1.46332 9.379284,4.91494 12.008214,8.8163 8.864874,13.15554 -1.32273,1.82598 -7.365664,5.33859 -8.020944,4.66238 -0.19098,-0.19708 0.133,-0.66826 0.71995,-1.04708 0.58696,-0.37882 1.78755,-1.39174 2.667984,-2.25094 1.30709,-1.27557 1.60078,-1.86646 1.60078,-3.2208 0,-3.25223 -3.089054,-6.16334 -10.458464,-9.85602 -6.32939,-3.17153 -15.30774,-5.82385 -23.47818,-6.93574 -3.71504,-0.50557 -15.37934,-0.37318 -21.19104,0.24052 -2.7202,0.28723 -2.6283,0.13162 -3.1329,5.30316 -0.149,1.52608 -0.5618,4.04404 -0.9176,5.59545 -1.5156,6.61038 -1.6946,20.70728 -0.3706,29.19492 z m 28.80305,2.04438 c 0.69035,2.39731 1.38596,5.18805 1.5458,6.20163 0.37744,2.39339 0.95668,2.91406 3.68299,3.31065 2.35042,0.3419 8.0083,0.33142 8.3552,-0.0155 0.49247,-0.49246 1.4707,-10.43613 1.20244,-12.22262 l -0.29464,-1.96207 -4.06709,-1.60971 c -4.11538,-1.62884 -10.48818,-4.91178 -13.61562,-7.01407 -0.93913,-0.63129 -1.91904,-1.27751 -2.17757,-1.43604 -0.25854,-0.15852 0.56119,2.11414 1.82162,5.05036 1.26043,2.93623 2.85653,7.30004 3.54687,9.69736 z m 2.35176,-43.29922 c 1.87456,0.23677 3.4632,0.37557 3.53033,0.30845 0.0671,-0.0671 -0.9691,-0.53959 -2.30271,-1.04994 -2.07989,-0.79593 -2.88556,-0.88373 -5.66472,-0.61737 l -3.23997,0.31053 2.13439,0.30893 c 1.1739,0.1699 3.66812,0.50263 5.54268,0.7394 z m -3.47348,93.46523 c 4.30239,-4.86622 10.84992,-21.50678 13.66084,-34.71903 l 1.00124,-4.70619 -3.02969,0.30432 c -1.66633,0.16737 -4.15825,0.31619 -5.53759,0.33071 l -2.5079,0.0264 0.2786,1.38734 c 0.59192,2.94753 1.1032,11.75 0.87281,15.02646 -0.59216,8.42135 -2.09365,15.20099 -4.44802,20.08408 -0.90561,1.87824 -1.65489,3.51104 -1.66509,3.62844 -0.0102,0.11739 0.60846,-0.49575 1.3748,-1.36251 z m 13.04509,-92.30431 c 8.10959,2.36351 17.802374,3.78172 30.189324,4.41718 4.14589,0.21269 7.94035,0.23785 8.43214,0.0559 0.79299,-0.29334 0.60871,-0.51338 -1.62857,-1.94455 -10.1184,-6.47266 -21.844074,-8.07245 -43.303544,-5.90808 l -2.72201,0.27453 2.72201,1.02955 c 1.4971,0.56625 4.3369,1.50021 6.31065,2.07545 z m 4.20184,51.57074 c 13.577474,-1.76921 24.307974,-4.79374 33.862164,-9.54449 4.29716,-2.13672 7.61544,-4.32294 8.23167,-5.42336 0.24815,-0.44313 -0.23488,-0.30945 -1.49406,0.41349 -5.3612,3.07804 -12.77959,4.38445 -22.88397,4.02998 -5.601724,-0.19651 -7.574134,-0.45443 -11.819744,-1.54556 -2.80281,-0.72033 -5.16117,-1.24453 -5.24081,-1.16489 -0.0796,0.0797 -0.52987,2.81291 -1.00049,6.07392 -0.47061,3.26101 -0.93047,6.1212 -1.02191,6.35598 -0.35311,0.90676 -0.18299,1.00692 1.36715,0.80493 z m -70.52586,6.45196 c 0.3225,-0.70434 0.6017,-2.62529 0.6206,-4.26876 0.048,-4.20559 0.9975,-9.06586 2.2563,-11.5501 0.5897,-1.16373 2.3691,-3.55523 3.9543,-5.31446 4.4759,-4.9676 5.8715,-6.85715 7.7934,-10.55117 1.718,-3.30225 3.493,-9.28066 3.4992,-11.78568 0.01,-1.44049 0.9968,-1.35889 1.2106,0.0995 0.077,0.52661 -0.925,4.54554 -2.2273,8.93095 -1.3023,4.38541 -2.8612,10.08651 -3.4643,12.66911 -0.603,2.58259 -1.8514,7.10591 -2.7742,10.05181 -3.0768,9.8229 -4.2032,11.50541 -7.703,11.50541 -1.8721,0 -2.0651,0.0998 -2.4767,1.28062 -0.2456,0.70435 -0.6486,1.28063 -0.8956,1.28063 -0.5859,0 -0.5187,-0.76347 0.2067,-2.34782 z m 38.3662,-66.93822 c 3.49656,-0.32651 8.34948,-1.9447 11.60404,-3.86932 1.38606,-0.81967 4.79526,-3.60925 7.576,-6.19906 6.53358,-6.085 7.68413,-6.58197 15.43417,-6.66665 3.22745,-0.0353 6.06964,-0.27668 6.7928,-0.57697 0.80221,-0.33312 1.39016,-0.3696 1.65696,-0.10279 0.2668,0.26679 -0.10468,0.63006 -1.04692,1.02375 -1.36858,0.57183 -1.45019,0.71789 -1.29724,2.32171 0.21943,2.30096 -0.78601,4.10681 -3.01314,5.41185 -2.21891,1.30023 -10.64272,3.74479 -17.81969,5.17122 -2.93477,0.58328 -8.56309,1.93565 -12.50736,3.00525 -6.90862,1.87346 -9.66532,2.20725 -9.99202,1.20986 -0.096,-0.29384 0.8846,-0.56751 2.6124,-0.72885 z"
       style="fill:#008000" />
    <path
       style="fill:#008000"
       d="m 507.47405,1023.0364 c -6.491,-1.6218 -19.9728,-2.6208 -30.1815,-2.2365 -4.0976,0.1542 -7.546,0.3762 -7.663,0.4933 -0.9771,0.977 -1.7071,25.7556 -0.94,31.9037 0.1702,1.3639 0.1596,2.5723 -0.024,2.6855 -0.4221,0.2609 -0.5684,-0.375 -1.859,-8.0805 -1.2381,-7.3925 -1.3586,-13.4207 -0.4186,-20.9562 0.3491,-2.799 0.559,-5.1649 0.4664,-5.2575 -0.333,-0.333 -8.7661,0.7899 -18.60993,2.478 -16.49047,2.8278 -18.72641,3.0736 -29.02756,3.1908 -10.40036,0.1184 -12.49779,0.4012 -24.75881,3.3386 -7.35128,1.7611 -10.40343,2.8491 -12.73919,4.5412 -2.65057,1.92 -2.89482,2.6856 -1.3583,4.2574 2.38168,2.4364 2.13459,4.9683 -0.61272,6.2784 -1.34459,0.6412 -1.56732,0.6467 -2.24878,0.056 -0.416,-0.3607 -2.15089,-1.3795 -3.85531,-2.264 -5.12794,-2.6613 -6.9538,-5.6925 -4.69154,-7.7888 1.18724,-1.1001 2.77286,-1.5121 10.35174,-2.6897 3.28695,-0.5107 7.56979,-1.3901 9.51742,-1.9542 4.41819,-1.2796 11.28251,-2.8903 15.34811,-3.6015 1.70217,-0.2978 3.09485,-0.7027 3.09485,-0.8999 0,-0.1972 -0.34801,-0.3585 -0.77336,-0.3585 -1.6989,0 -7.74553,-1.8623 -11.01646,-3.3929 -3.51917,-1.6468 -7.64735,-4.2471 -10.47259,-6.5967 -1.7783,-1.479 -2.07481,-1.4918 -10.18017,-0.4413 -14.16102,1.8355 -26.8386,5.9902 -36.24197,11.8774 -2.59556,1.625 -2.58895,1.6325 2.0919,2.3781 7.41333,1.1808 19.65589,0.8994 26.86751,-0.6177 4.19468,-0.8823 9.48289,-2.9157 11.84266,-4.5537 1.62189,-1.1257 2.48176,-1.4274 4.0689,-1.4276 2.34385,-4e-4 3.5704,0.8972 3.12854,2.2894 -0.20705,0.6523 -1.05689,1.1214 -3.17431,1.752 -7.47235,2.2254 -14.17762,3.5942 -20.90113,4.2669 -5.78227,0.5786 -20.23139,0.5664 -25.63591,-0.022 l -4.2641,-0.4639 -5.25063,2.9416 c -6.69607,3.7513 -10.51953,5.4678 -14.00159,6.286 -5.24844,1.2332 -11.82064,0.6768 -17.74964,-1.5027 -6.6304,-2.4374 -14.529,-8.6481 -16.6676,-13.1057 -2.9293,-6.1059 -9.1639,-12.0511 -12.6316,-12.0454 -3.1127,0 -5.7007,3.8829 -5.357,8.0269 0.1746,2.1057 0.385,2.531 1.9958,4.0335 1.9018,1.774 2.6634,1.8823 6.6553,0.9464 l 1.2806,-0.3002 -1.3018,1.3426 c -1.7788,1.8345 -3.8235,2.1284 -6.3384,0.9109 -2.7887,-1.35 -3.6721,-3.0104 -3.6717,-6.9015 3e-4,-2.5895 0.2207,-3.6169 1.2364,-5.764 1.5164,-3.2053 2.575,-4.0037 5.3084,-4.0037 3.1328,0 6.6831,2.0536 9.39,5.4315 2.1681,2.7056 2.8257,2.861 2.8409,0.6715 0.013,-1.8991 2.3929,-6.0375 4.1241,-7.1718 1.1158,-0.7311 2.7124,-0.5092 2.7124,0.3769 0,0.2922 -0.5679,0.9512 -1.2621,1.4644 -1.8017,1.3321 -3.5499,4.5113 -3.5499,6.4557 0,4.5784 5.5004,11.1596 12.0689,14.4401 9.5008,4.745 17.3435,4.3456 29.61067,-1.5079 4.96107,-2.3672 5.04451,-2.4303 4.05533,-3.0655 -1.74155,-1.1182 -5.91904,-5.2454 -5.91904,-5.8477 0,-0.8171 0.18021,-0.7511 2.49912,0.9148 1.14082,0.8196 3.32209,1.9599 4.84726,2.534 l 2.77303,1.0437 5.81937,-2.9141 c 9.15629,-4.5853 18.73931,-7.7489 28.45631,-9.3942 4.02031,-0.6807 15.46877,-2.1483 16.77427,-2.1503 0.18674,-3e-4 -0.63566,-1.2011 -1.82755,-2.6685 -1.19191,-1.4674 -2.63987,-3.6615 -3.21771,-4.8758 -2.4827,-5.2172 -3.12435,-11.51983 -1.56089,-15.33183 0.47296,-1.15314 0.96758,-2.59313 1.09915,-3.19997 0.13158,-0.60684 1.24957,-2.11369 2.48443,-3.34855 7.9398,-7.9398 25.44327,-14.78722 43.82526,-17.14462 3.41889,-0.43845 3.93083,-0.61342 4.10992,-1.40467 0.11251,-0.49712 0.59689,-2.72874 1.07639,-4.95917 3.31654,-15.42713 8.95683,-29.0403 15.49345,-37.39438 2.32339,-2.96939 3.14801,-3.55114 7.52929,-5.3117 5.04236,-2.02619 11.99441,0.0199 16.80361,4.9456 1.3297,1.36197 2.49,2.39532 2.5784,2.29633 0.088,-0.099 0.3883,-1.81277 0.6665,-3.80842 2.1878,-15.69273 6.1136,-28.86909 12.4523,-41.79412 l 3.2437,-6.61413 -0.7488,-2.91066 c -0.4117,-1.60086 -1.2593,-3.88726 -1.8834,-5.08088 -0.6241,-1.19362 -1.0074,-2.29448 -0.8517,-2.44636 0.4496,-0.43848 3.6493,3.37531 4.6031,5.48669 l 0.8679,1.92094 2.3193,-4.90907 c 1.2757,-2.69998 3.0124,-6.92606 3.8593,-9.39126 1.4774,-4.29986 1.5406,-4.72532 1.5541,-10.45846 0.012,-5.15181 -0.1236,-6.38849 -0.9841,-8.96439 -2.2681,-6.79012 -5.9207,-12.05663 -9.5954,-13.83555 -3.2291,-1.56317 -5.3117,-1.03212 -8.1132,2.06883 -1.7202,1.90406 -2.1954,2.09164 -2.6037,1.02775 -0.7782,-2.02805 4.4355,-6.12262 7.7962,-6.12262 l 1.4722,0 -2.2194,-2.34669 c -3.0295,-3.2031 -4.506,-6.47656 -4.4794,-9.93044 0.018,-2.3091 0.1778,-2.8366 1.1775,-3.87999 1.9595,-2.04535 4.4969,-3.05226 7.6916,-3.05226 2.6394,0 2.9539,0.1036 4.4354,1.46127 1.5696,1.4385 1.5944,1.51111 1.5944,4.66124 0,2.80365 -0.1288,3.33711 -1.0401,4.30721 -1.333,1.41898 -2.0483,0.80648 -1.1305,-0.9682 1.877,-3.62985 -0.6377,-8.18089 -4.5205,-8.18089 -2.6074,0 -4.8009,1.3547 -5.9129,3.65179 -0.8598,1.77596 -0.9022,2.15015 -0.4249,3.74945 0.2915,0.97713 0.8451,2.3876 1.2302,3.13439 1.1263,2.1847 5.6377,7.02179 7.1308,7.64564 3.7087,1.54962 8.4332,8.90443 10.6691,16.6091 1.4637,5.04391 1.87,13.03602 0.8949,17.60711 -0.9236,4.33067 -3.1273,9.50961 -6.9065,16.23133 l -3.2398,5.76224 0.2853,3.27029 c 0.4809,5.51198 -1.144,24.34609 -2.8015,32.4726 -0.9626,4.71951 -3.4132,13.78229 -4.5595,16.86158 -0.6509,1.74855 -1.0005,2.15838 -1.9334,2.26712 -0.9947,0.11594 -1.1733,-0.051 -1.4112,-1.31938 -0.29,-1.54541 0.3916,-4.79244 1.0975,-5.22868 0.6131,-0.37895 2.4067,-4.0455 3.6079,-7.37548 3.0826,-8.5456 4.9723,-23.7189 4.1836,-33.5924 l -0.3409,-4.26876 -1.7075,2.98813 c -6.7062,11.73583 -11.2325,25.52771 -13.6592,41.62038 -0.608,4.03234 -0.6058,4.06395 0.3955,5.57837 3.7887,5.73058 7.0739,15.65138 7.0739,21.36196 0,2.68729 0.5916,1.91574 1.4272,-1.86138 0.9021,-4.07743 2.4078,-9.5771 4.1197,-15.04737 0.6613,-2.11303 1.8946,-7.16845 2.7408,-11.23427 1.6874,-8.10877 2.3132,-9.75483 3.8552,-10.14187 2.402,-0.60285 3.7729,0.93112 5.5796,6.24308 0.5756,1.69218 1.2576,3.33096 1.5154,3.64173 1.0167,1.22507 -1.1259,4.45587 -2.9408,4.43431 -1.326,-0.0157 -2.2875,-0.65931 -3.0092,-2.01409 -0.666,-1.25024 -1.1437,-1.21122 -2.4519,0.20032 -1.8303,1.97495 -3.8533,6.86297 -5.8799,14.20674 -3.4183,12.38722 -4.5291,17.85516 -4.5291,22.29321 0,6.93916 -1.0613,13.72771 -5.1233,32.77375 -2.4729,11.59528 -4.2681,21.58848 -4.2681,23.75978 l 0,1.1168 3.0949,-0.2667 c 7.6576,-0.6599 15.5998,-0.7944 18.6514,-0.3159 5.1208,0.8028 16.6726,4.1435 16.6726,4.8214 0,0.2374 -0.4323,0.3236 -0.9604,0.1916 z m -31.9421,-74.26067 c -0.8778,-5.85894 -3.3601,-13.59174 -4.8713,-15.17446 -1.3421,-1.40573 -1.3761,27.75323 -0.042,36.18631 0.7765,4.90851 2.4468,12.92375 2.6507,12.71982 0.1858,-0.18583 1.7308,-10.8693 2.2354,-15.45779 0.5453,-4.95849 0.5599,-14.71901 0.027,-18.27388 z m -3.3918,33.42797 c -0.4556,-1.76086 -0.7359,-2.55325 -0.6228,-1.76086 0.1132,0.79239 0.2292,3.57775 0.2579,6.18969 l 0.052,4.749 0.536,-2.7747 c 0.2949,-1.52608 0.5517,-2.87074 0.5708,-2.98812 0.019,-0.11739 -0.3383,-1.65415 -0.794,-3.41501 z m -2.7653,-3.20156 c -2.0985,-13.45342 -6.4162,-23.83607 -10.3197,-24.8158 -1.6483,-0.41369 -3.4265,0.63834 -4.86312,2.87713 -1.30714,2.037 -2.11098,2.63246 -2.09958,1.55535 0.0107,-1.01436 3.40409,-6.65718 4.5413,-7.55169 4.1055,-3.22943 7.203,-0.68929 10.9002,8.93904 0.9471,2.46655 1.1678,2.80955 0.9614,1.49406 -0.4091,-2.60712 -0.263,-22.07617 0.2014,-26.84065 l 0.4109,-4.21624 -1.6527,-2.1869 c -4.5294,-5.99335 -11.7243,-8.77477 -16.43534,-6.35361 -2.45105,1.25968 -5.44954,4.03065 -7.03473,6.50096 -4.08928,6.37258 -6.18507,21.40621 -4.65137,33.36541 0.53446,4.16743 0.13228,3.78161 4.64265,4.45381 3.00437,0.44775 6.81521,2.03799 9.99607,4.17128 1.60336,1.07532 3.13172,2.033 3.39632,2.12819 0.2646,0.0952 0.3268,0.33768 0.1382,0.53886 -0.1887,0.20118 -1.1491,-0.0548 -2.13443,-0.56888 -0.98529,-0.51407 -3.23216,-1.23094 -4.99303,-1.59303 -1.76085,-0.36211 -4.63495,-1.0316 -6.38686,-1.48776 -1.75191,-0.45616 -3.26229,-0.75239 -3.35639,-0.65829 -0.65934,0.65933 3.00123,11.90747 5.69698,17.50564 2.95581,6.13822 5.18501,9.50836 7.59636,11.48427 1.07839,0.88366 3.06037,2.95071 4.40427,4.59341 1.9586,2.394 2.3225,3.0656 1.8335,3.3837 -0.3355,0.2183 -1.0305,0.2982 -1.5443,0.1776 -0.5139,-0.1206 -1.0646,-0.01 -1.2238,0.2491 -0.3861,0.6248 -3.57714,-2.4995 -6.01767,-5.8918 -3.59062,-4.99099 -13.09281,-11.4837 -22.25526,-15.20674 -3.1281,-1.27106 -2.92295,-1.89929 -1.99837,6.11953 0.65624,5.69156 0.96964,7.42457 1.83343,10.13831 0.27577,0.8664 0.28746,1.3873 0.0311,1.3873 -0.22576,0 -0.52025,-0.3361 -0.65441,-0.747 -0.13416,-0.4109 -0.90801,-2.15146 -1.71967,-3.86797 -1.66349,-3.51804 -2.70523,-8.23679 -2.70523,-12.25385 l 0,-2.70685 -2.2411,-0.6315 c -13.07316,-3.68382 -27.69426,-3.32706 -35.39394,0.86363 -2.63051,1.4317 -5.86784,4.90296 -7.35411,7.88552 -2.75319,5.52492 -0.27564,13.99442 5.80316,19.83802 l 1.83434,1.7633 9.60471,0.2535 c 8.64031,0.2281 19.28742,1.3015 21.98411,2.2163 0.46957,0.1593 -0.65159,-0.4991 -2.49144,-1.4633 -9.37928,-4.9149 -12.00821,-8.8163 -8.86487,-13.1555 1.32273,-1.82599 7.36566,-5.33861 8.02094,-4.6624 0.19098,0.19708 -0.133,0.66827 -0.71995,1.04708 -0.58696,0.37882 -1.78755,1.39174 -2.66798,2.25094 -1.30709,1.27558 -1.60078,1.86648 -1.60078,3.22078 0,3.2523 3.08905,6.1634 10.45846,9.856 6.32939,3.1716 15.30774,5.8239 23.47818,6.9358 3.71504,0.5056 15.37934,0.3732 21.19104,-0.2405 2.7202,-0.2873 2.6283,-0.1317 3.1329,-5.3032 0.149,-1.5261 0.5618,-4.044 0.9176,-5.5954 1.5156,-6.6104 1.6946,-20.70733 0.3706,-29.19496 z m -28.80305,-2.04439 c -0.69035,-2.39731 -1.38596,-5.18804 -1.5458,-6.20162 -0.37744,-2.39339 -0.95668,-2.91407 -3.68299,-3.31066 -2.35042,-0.3419 -8.0083,-0.33142 -8.3552,0.0155 -0.49247,0.49247 -1.4707,10.43613 -1.20244,12.22262 l 0.29464,1.96207 4.06709,1.60972 c 4.11538,1.62884 10.48818,4.91177 13.61562,7.01406 0.93913,0.63129 1.91904,1.27751 2.17757,1.43604 0.25854,0.15852 -0.56119,-2.11413 -1.82162,-5.05036 -1.26043,-2.93623 -2.85653,-7.30004 -3.54687,-9.69736 z m -2.35176,43.29925 c -1.87456,-0.2368 -3.4632,-0.3756 -3.53033,-0.3085 -0.0671,0.067 0.9691,0.5396 2.30271,1.05 2.07989,0.7959 2.88556,0.8837 5.66472,0.6173 l 3.23997,-0.3105 -2.13439,-0.3089 c -1.1739,-0.1699 -3.66812,-0.5027 -5.54268,-0.7394 z m 3.47348,-93.46526 c -4.30239,4.86622 -10.84992,21.50678 -13.66084,34.71904 l -1.00124,4.70619 3.02969,-0.30432 c 1.66633,-0.16738 4.15825,-0.3162 5.53759,-0.33071 l 2.5079,-0.0264 -0.2786,-1.38735 c -0.59192,-2.94753 -1.1032,-11.74999 -0.87281,-15.02645 0.59216,-8.42135 2.09365,-15.20099 4.44802,-20.08408 0.90561,-1.87824 1.65489,-3.51104 1.66509,-3.62844 0.0102,-0.11739 -0.60846,0.49575 -1.3748,1.36251 z m -13.04509,92.30436 c -8.10959,-2.3636 -17.80237,-3.7818 -30.18932,-4.4172 -4.14589,-0.2127 -7.94035,-0.2379 -8.43214,-0.056 -0.79299,0.2933 -0.60871,0.5134 1.62857,1.9445 10.1184,6.4727 21.84407,8.0725 43.30354,5.9081 l 2.72201,-0.2745 -2.72201,-1.0296 c -1.4971,-0.5662 -4.3369,-1.5002 -6.31065,-2.0754 z m -4.20184,-51.57078 c -13.57747,1.76921 -24.30797,4.79374 -33.86216,9.54448 -4.29716,2.13673 -7.61544,4.32295 -8.23167,5.42336 -0.24815,0.44313 0.23488,0.30945 1.49406,-0.41349 5.3612,-3.07803 12.77959,-4.38445 22.88397,-4.02998 5.60172,0.19652 7.57413,0.45443 11.81974,1.54557 2.80281,0.72032 5.16117,1.24452 5.24081,1.16488 0.0796,-0.0797 0.52987,-2.8129 1.00049,-6.07391 0.47061,-3.26102 0.93047,-6.12121 1.02191,-6.35598 0.35311,-0.90676 0.18299,-1.00692 -1.36715,-0.80493 z m 70.52586,-6.45196 c -0.3225,0.70433 -0.6017,2.62528 -0.6206,4.26875 -0.048,4.20559 -0.9975,9.06586 -2.2563,11.5501 -0.5897,1.16373 -2.3691,3.55523 -3.9543,5.31446 -4.4759,4.96761 -5.8715,6.85715 -7.7934,10.55117 -1.718,3.30225 -3.493,9.28066 -3.4992,11.78566 -0.01,1.4405 -0.9968,1.3589 -1.2106,-0.1 -0.077,-0.5266 0.925,-4.54552 2.2273,-8.93093 1.3023,-4.3854 2.8612,-10.0865 3.4643,-12.6691 0.603,-2.58259 1.8514,-7.10592 2.7742,-10.05182 3.0768,-9.8229 4.2032,-11.5054 7.703,-11.5054 1.8721,0 2.0651,-0.0998 2.4767,-1.28063 0.2456,-0.70435 0.6486,-1.28063 0.8956,-1.28063 0.5859,0 0.5187,0.76348 -0.2067,2.34782 z m -38.3662,66.93824 c -3.49656,0.3265 -8.34948,1.9447 -11.60404,3.8693 -1.38606,0.8197 -4.79526,3.6092 -7.576,6.1991 -6.53358,6.085 -7.68413,6.5819 -15.43417,6.6666 -3.22745,0.035 -6.06964,0.2767 -6.7928,0.577 -0.80221,0.3331 -1.39016,0.3696 -1.65696,0.1028 -0.2668,-0.2668 0.10468,-0.6301 1.04692,-1.0238 1.36858,-0.5718 1.45019,-0.7179 1.29724,-2.3217 -0.21943,-2.3009 0.78601,-4.1068 3.01314,-5.4118 2.21891,-1.3003 10.64272,-3.7448 17.81969,-5.1713 2.93477,-0.5832 8.56309,-1.9356 12.50736,-3.0052 6.90862,-1.8735 9.66532,-2.2073 9.99202,-1.2099 0.096,0.2939 -0.8846,0.5675 -2.6124,0.7289 z"
       id="path3176"
       inkscape:connector-curvature="0" />
  </g>
</svg>
